<svg fill="none" viewBox="0 0 622 1241"
     xmlns="http://www.w3.org/2000/svg">
    <path d="M619.938 600.664C630.554 600.664 639.046 608.626 639.046 619.241C639.046 629.856 630.554 638.879 619.938 638.879C609.323 638.879 600.83 629.856 600.83 619.772C600.83 609.156 609.323 600.664 619.938 600.664Z" fill="white"/>
    <path d="M638.515 579.436C638.515 589.52 630.023 598.012 619.938 598.012C609.854 598.012 600.831 588.989 601.361 578.905C601.361 568.82 609.854 560.328 619.938 560.328C630.554 560.328 639.046 568.82 638.515 579.436Z" fill="white"/>
    <path d="M639.046 661.705C639.046 672.32 630.554 680.281 619.938 680.281C609.854 679.751 601.361 671.258 601.892 661.174C601.892 651.089 610.384 642.597 620.469 642.597C630.554 642.597 639.046 651.089 639.046 661.705Z" fill="white"/>
    <path d="M579.069 601.192C589.684 601.192 598.177 609.154 598.177 619.769C598.177 629.854 590.215 638.346 579.6 638.346C569.515 638.346 560.492 629.854 560.492 619.769C560.492 609.685 568.984 601.192 579.069 601.192Z" fill="white"/>
    <path d="M579.069 679.746C568.985 679.746 560.492 671.253 561.023 661.169C561.023 651.084 568.984 642.592 579.6 643.123C589.684 643.123 598.177 651.615 598.177 661.7C597.646 671.784 589.154 679.746 579.069 679.746Z" fill="white"/>
    <path d="M597.646 578.905C597.646 588.989 589.684 597.481 579.069 597.481C568.984 597.481 561.023 589.52 561.023 579.436C561.023 569.351 568.984 560.858 579.069 560.328C589.154 560.328 597.646 568.82 597.646 578.905Z" fill="white"/>
    <path d="M619.939 683.996C630.023 683.996 637.985 691.427 638.516 701.511C639.046 711.596 630.023 720.088 620.469 720.088C610.385 720.088 602.423 712.127 602.423 702.042C601.893 691.957 609.854 684.526 619.939 683.996Z" fill="white"/>
    <path d="M538.2 637.819C528.115 637.819 520.154 629.857 520.154 620.303C520.154 610.75 528.115 602.257 538.2 601.727C548.284 601.727 556.246 609.688 556.246 619.773C555.715 629.857 548.284 637.819 538.2 637.819Z" fill="white"/>
    <path d="M602.423 537.5C602.423 527.416 610.385 519.454 620.469 519.985C630.554 519.985 638.516 528.477 638.516 538.031C638.516 547.585 630.023 556.077 619.939 556.077C609.854 555.547 601.893 547.585 602.423 537.5Z" fill="white"/>
    <path d="M561.554 702.039C561.554 691.954 569.515 683.993 579.6 684.524C589.154 684.524 597.115 692.485 597.115 702.039C597.115 712.124 589.154 720.085 579.069 720.085C569.515 720.085 561.554 712.124 561.554 702.039Z" fill="white"/>
    <path d="M555.715 661.174C555.715 671.258 547.754 679.22 537.669 679.22C527.585 679.22 519.623 670.728 519.623 661.174C519.623 651.62 527.584 643.658 537.138 643.658C547.754 643.128 555.715 651.089 555.715 661.174Z" fill="white"/>
    <path d="M597.115 537.503C597.115 547.587 588.623 555.549 578.538 555.018C568.985 554.487 561.023 546.526 561.023 536.972C561.023 526.887 569.515 518.925 579.6 519.456C589.684 519.987 597.115 527.949 597.115 537.503Z" fill="white"/>
    <path d="M555.715 578.901C555.715 588.986 547.223 596.947 537.669 596.416C528.115 596.416 520.154 588.455 520.154 578.37C520.154 568.286 528.646 560.324 538.2 560.855C548.284 561.386 555.715 569.347 555.715 578.901Z" fill="white"/>
    <path d="M537.669 719.555C527.585 719.555 520.154 712.124 520.154 702.039C520.154 692.485 527.584 685.055 537.138 684.524C546.692 684.524 555.184 692.485 555.184 702.039C555.715 711.593 547.754 719.555 537.669 719.555Z" fill="white"/>
    <path d="M537.669 555.02C527.584 555.02 520.154 547.059 520.684 537.505C520.684 527.951 528.646 520.52 537.669 520.52C547.223 520.52 555.184 528.481 555.184 538.035C555.184 547.058 547.223 555.02 537.669 555.02Z" fill="white"/>
    <path d="M637.454 743.439C637.454 752.993 629.492 760.954 619.938 760.954C610.385 760.954 602.423 752.462 602.423 742.908C602.423 733.354 610.385 725.923 619.938 725.923C630.023 726.454 637.454 733.885 637.454 743.439Z" fill="white"/>
    <path d="M496.269 602.789C505.823 602.789 513.784 610.751 513.254 620.304C513.254 629.858 505.292 637.289 495.738 637.289C486.715 637.289 478.754 629.327 478.223 620.304C478.754 610.751 486.715 602.789 496.269 602.789Z" fill="white"/>
    <path d="M637.454 496.102C637.454 505.656 630.023 513.087 620.469 513.087C610.915 513.087 602.954 505.125 602.954 495.571C602.954 486.017 610.915 478.587 619.938 478.587C629.492 478.587 637.454 486.548 637.454 496.102Z" fill="white"/>
    <path d="M513.254 661.703C513.254 671.257 505.292 678.688 495.738 678.688C486.184 678.688 478.754 671.257 478.754 661.703C478.754 652.149 487.246 644.188 496.269 644.188C506.354 644.188 513.784 652.149 513.254 661.703Z" fill="white"/>
    <path d="M579.069 726.457C588.623 726.457 596.054 733.888 596.584 743.441C596.584 752.995 588.623 760.957 579.069 760.957C569.515 760.957 562.084 752.995 562.084 743.441C562.084 734.418 570.046 726.457 579.069 726.457Z" fill="white"/>
    <path d="M513.254 578.903C513.254 588.457 505.823 595.888 496.8 596.418C487.246 596.949 479.285 588.457 479.285 578.903C479.285 569.349 487.246 561.918 496.269 561.918C505.823 561.918 513.254 569.349 513.254 578.903Z" fill="white"/>
    <path d="M579.6 479.116C589.154 479.116 596.584 487.078 596.584 496.101C596.584 505.655 589.154 513.085 579.6 513.085C570.046 513.085 562.084 505.124 562.084 495.57C562.615 486.016 570.046 478.585 579.6 479.116Z" fill="white"/>
    <path d="M479.815 537.505C479.815 527.951 486.715 521.051 496.269 520.52C505.823 520.52 513.785 527.951 513.785 536.974C513.785 546.528 505.823 553.958 496.8 553.958C486.715 554.489 479.815 547.059 479.815 537.505Z" fill="white"/>
    <path d="M554.654 496.102C554.654 505.656 547.754 512.556 538.2 512.556C528.646 512.556 521.215 505.125 521.215 495.571C521.215 486.548 528.646 479.118 537.669 478.587C547.223 479.118 554.654 486.548 554.654 496.102Z" fill="white"/>
    <path d="M495.738 685.586C505.292 685.586 512.723 693.017 513.254 702.04C513.254 711.594 505.823 719.025 496.269 719.025C487.246 719.025 479.815 711.594 479.285 702.571C479.285 693.017 486.184 685.586 495.738 685.586Z" fill="white"/>
    <path d="M554.654 743.441C554.654 752.995 547.223 760.426 537.669 760.426C528.646 760.426 521.215 752.996 520.685 743.972C520.685 734.949 528.115 726.988 537.138 726.457C546.692 726.457 554.654 733.888 554.654 743.441Z" fill="white"/>
    <path d="M620.469 800.766C610.915 800.766 603.484 793.866 603.484 784.312C603.484 775.289 610.385 767.327 619.938 767.327C628.961 767.327 636.923 774.758 636.923 783.781C636.923 793.335 629.492 800.766 620.469 800.766Z" fill="white"/>
    <path d="M579.6 800.763C570.046 800.763 563.146 793.332 563.146 784.309C563.146 775.286 570.577 767.325 579.6 767.855C588.623 767.855 596.054 775.286 596.054 784.309C596.054 793.332 588.623 800.763 579.6 800.763Z" fill="white"/>
    <path d="M455.4 636.227C446.377 636.227 438.946 628.797 438.946 619.243C438.946 610.22 446.907 602.789 455.93 602.789C464.954 602.789 472.385 610.751 472.385 619.774C471.854 629.328 464.423 636.758 455.4 636.227Z" fill="white"/>
    <path d="M619.938 471.687C610.915 471.687 603.484 464.256 603.484 455.233C603.484 446.21 610.915 438.779 619.938 438.779C628.961 438.779 636.392 446.741 636.392 455.764C636.923 464.256 629.492 471.687 619.938 471.687Z" fill="white"/>
    <path d="M455.4 644.717C464.423 644.717 472.385 652.147 472.385 661.171C472.385 670.194 464.954 677.625 455.931 677.625C446.908 677.625 440.008 670.194 439.477 661.701C438.946 652.678 445.846 645.248 455.4 644.717Z" fill="white"/>
    <path d="M579.6 471.687C570.577 471.687 563.146 464.256 563.146 455.233C563.146 446.21 570.577 438.779 579.6 438.779C588.623 438.779 595.523 446.21 596.054 454.702C596.054 463.725 588.623 471.687 579.6 471.687Z" fill="white"/>
    <path d="M455.4 595.356C446.377 595.356 438.946 587.925 438.946 578.901C438.946 569.878 446.377 562.448 455.93 562.448C464.954 562.448 471.854 569.878 472.385 578.901C472.385 587.925 464.954 595.356 455.4 595.356Z" fill="white"/>
    <path d="M496.269 759.894C487.246 759.894 479.815 752.463 479.815 743.44C479.815 734.416 487.246 727.517 496.269 726.986C505.292 726.986 512.723 734.416 512.723 743.44C512.723 752.993 505.292 759.894 496.269 759.894Z" fill="white"/>
    <path d="M479.815 496.103C479.815 487.08 487.246 479.649 496.269 479.649C505.292 479.649 512.192 487.08 512.192 496.103C512.192 505.127 504.761 512.557 495.738 512.557C487.246 512.026 479.815 505.127 479.815 496.103Z" fill="white"/>
    <path d="M471.854 537.502C471.854 546.525 464.954 553.425 455.4 553.425C446.377 553.425 438.946 545.994 439.477 536.971C439.477 527.948 446.907 521.048 455.93 521.048C464.423 521.579 471.854 528.479 471.854 537.502Z" fill="white"/>
    <path d="M537.669 768.385C546.692 768.385 554.123 775.285 554.123 784.308C554.123 793.331 546.692 801.293 537.669 801.293C528.646 801.293 521.746 793.862 521.746 784.838C521.746 775.285 528.646 768.385 537.669 768.385Z" fill="white"/>
    <path d="M521.746 455.233C521.746 446.21 528.646 439.31 537.669 438.779C546.692 438.779 554.123 445.679 554.123 454.702C554.123 463.725 546.692 471.156 538.2 471.156C529.177 471.687 521.746 464.256 521.746 455.233Z" fill="white"/>
    <path d="M471.854 702.569C471.854 711.593 464.423 718.493 455.4 718.493C446.377 718.493 439.477 711.062 439.477 702.039C439.477 693.016 446.907 686.116 455.931 686.116C464.954 686.116 471.854 693.546 471.854 702.569Z" fill="white"/>
    <path d="M635.862 825.709C635.862 834.732 628.962 841.632 619.938 841.632C611.446 841.632 604.015 834.732 604.015 826.24C604.015 817.747 611.446 809.786 619.938 810.317C628.962 810.317 635.862 817.216 635.862 825.709Z" fill="white"/>
    <path d="M512.192 784.311C512.192 792.804 505.292 800.234 496.8 800.234C488.308 800.234 480.877 793.334 480.877 784.842C480.877 775.819 488.308 768.919 496.8 768.919C505.292 768.919 512.192 775.819 512.192 784.311Z" fill="white"/>
    <path d="M594.992 825.71C594.992 834.203 588.092 841.633 579.6 841.633C570.577 841.633 563.146 834.203 563.677 825.71C563.677 817.218 571.107 809.788 579.6 810.318C588.092 810.318 594.992 817.218 594.992 825.71Z" fill="white"/>
    <path d="M455.4 728.048C463.892 728.048 471.323 734.948 471.323 743.44C471.323 752.464 463.892 759.894 455.4 759.364C446.907 759.364 439.476 751.933 440.007 743.44C439.476 734.948 446.907 728.048 455.4 728.048Z" fill="white"/>
    <path d="M635.862 414.363C635.331 422.856 628.431 429.756 619.407 429.225C610.915 428.694 604.015 421.794 604.015 413.302C604.015 404.809 611.446 397.379 619.938 397.91C629.492 397.91 636.392 405.34 635.862 414.363Z" fill="white"/>
    <path d="M398.077 619.772C398.077 611.28 404.977 604.38 414 604.38C422.492 604.38 429.923 611.28 429.923 619.772C429.923 628.265 422.492 636.226 413.469 635.695C404.977 635.695 398.077 628.265 398.077 619.772Z" fill="white"/>
    <path d="M414 677.094C405.508 677.094 398.077 670.195 398.077 661.702C398.077 653.21 404.977 645.779 413.469 645.779C421.961 645.779 429.392 652.679 429.392 661.171C429.923 669.664 423.023 677.094 414 677.094Z" fill="white"/>
    <path d="M512.192 455.231C512.192 463.723 505.292 471.154 496.269 471.154C487.777 471.154 480.346 463.723 480.346 455.231C480.346 446.738 487.246 439.308 496.269 439.308C505.292 439.308 512.192 446.738 512.192 455.231Z" fill="white"/>
    <path d="M471.323 496.101C471.323 504.593 464.423 512.024 455.4 512.024C446.908 512.024 439.477 504.593 439.477 496.101C439.477 487.609 446.377 480.178 455.4 480.178C464.423 480.178 471.323 487.078 471.323 496.101Z" fill="white"/>
    <path d="M594.992 414.366C594.461 422.858 587.561 429.758 579.069 429.758C570.577 429.758 563.677 422.328 563.677 413.835C564.207 405.343 571.108 398.443 580.131 398.443C588.623 398.443 595.523 405.343 594.992 414.366Z" fill="white"/>
    <path d="M398.607 578.902C398.607 570.41 405.507 563.51 414.53 563.51C423.023 563.51 429.923 570.41 429.923 579.433C429.923 587.926 422.492 595.356 414 594.825C404.977 594.825 398.077 587.395 398.607 578.902Z" fill="white"/>
    <path d="M429.392 702.043C429.392 711.066 422.492 717.966 414 717.966C405.508 717.966 398.608 711.065 398.608 702.573C398.608 694.081 405.508 687.181 414.531 687.181C423.023 686.65 429.392 693.55 429.392 702.043Z" fill="white"/>
    <path d="M429.392 537.503C429.392 545.996 422.492 552.896 414.531 552.896C406.038 552.896 398.608 545.996 398.608 537.503C398.608 529.011 405.508 522.111 414.531 522.111C423.023 522.642 429.392 529.011 429.392 537.503Z" fill="white"/>
    <path d="M537.669 398.443C546.161 398.443 553.061 404.812 553.061 413.304C553.061 422.327 546.692 429.227 537.669 429.227C529.177 429.227 521.746 421.797 522.277 413.304C522.277 405.343 529.177 398.443 537.669 398.443Z" fill="white"/>
    <path d="M537.669 810.318C546.692 810.318 553.061 817.217 553.061 825.71C553.061 834.202 546.161 841.102 538.2 841.102C529.708 841.102 522.277 834.202 522.277 825.71C522.277 817.748 529.177 810.318 537.669 810.318Z" fill="white"/>
    <path d="M455.4 470.627C446.907 470.627 440.538 463.727 440.538 455.235C440.538 446.743 447.969 439.843 455.93 440.373C464.423 440.373 471.323 447.804 470.792 456.297C470.792 464.258 463.892 470.627 455.4 470.627Z" fill="white"/>
    <path d="M455.4 799.704C446.907 799.704 440.538 792.804 440.538 784.311C440.538 775.819 447.438 768.919 455.93 768.919C464.423 768.919 471.854 776.35 471.323 784.842C470.792 793.334 463.892 799.704 455.4 799.704Z" fill="white"/>
    <path d="M496.269 810.846C504.761 810.846 511.661 817.215 511.661 825.707C511.661 833.669 504.761 841.1 496.8 841.1C488.307 841.1 481.407 834.2 481.407 826.238C480.877 817.746 487.777 810.846 496.269 810.846Z" fill="white"/>
    <path d="M428.862 743.969C428.862 752.462 421.961 758.831 413.469 758.831C405.508 758.831 398.608 751.931 398.608 743.969C398.608 736.008 405.508 728.577 414 728.577C422.492 728.577 429.392 735.477 428.862 743.969Z" fill="white"/>
    <path d="M428.861 496.104C428.861 504.597 421.961 511.497 413.469 510.966C404.976 510.966 398.077 504.066 398.607 495.573C398.607 487.612 405.507 480.712 413.469 480.712C421.961 480.712 428.861 487.612 428.861 496.104Z" fill="white"/>
    <path d="M481.407 413.835C481.407 405.343 487.777 398.443 496.269 398.443C504.762 398.443 511.661 405.343 511.661 413.835C511.661 421.797 504.761 428.697 496.8 428.697C488.308 429.228 481.407 422.328 481.407 413.835Z" fill="white"/>
    <path d="M620.469 882.504C611.977 882.504 605.077 876.135 605.077 867.643C605.077 859.151 611.977 852.25 619.938 852.25C627.9 852.25 634.8 859.15 634.8 867.112C635.331 875.074 628.961 882.504 620.469 882.504Z" fill="white"/>
    <path d="M620.469 358.101C628.431 358.101 635.33 364.47 635.33 372.963C635.33 381.455 628.431 388.355 619.938 388.355C611.446 388.355 605.077 381.455 605.077 372.963C605.608 364.47 611.977 358.101 620.469 358.101Z" fill="white"/>
    <path d="M373.661 634.632C365.169 634.632 358.269 628.263 358.269 619.771C358.269 611.809 364.638 604.909 373.131 604.909C381.623 604.909 388.523 611.278 388.523 619.771C387.992 628.263 381.623 634.632 373.661 634.632Z" fill="white"/>
    <path d="M594.461 867.107C594.461 875.069 588.092 881.969 580.131 882.499C571.638 883.03 564.738 876.13 564.208 868.169C564.208 859.676 570.577 852.777 579.069 852.777C587.561 852.246 593.931 859.146 594.461 867.107Z" fill="white"/>
    <path d="M387.992 661.172C387.992 669.134 381.623 676.034 373.661 676.565C365.169 677.095 358.269 670.196 358.269 661.703C358.269 653.742 364.638 646.841 373.131 646.841C381.092 646.311 387.992 652.68 387.992 661.172Z" fill="white"/>
    <path d="M579.069 358.101C587.03 358.101 593.931 364.47 594.461 372.432C594.992 380.924 588.092 387.824 579.6 387.824C571.638 387.824 564.738 380.924 564.738 372.963C564.207 365.001 571.107 358.101 579.069 358.101Z" fill="white"/>
    <path d="M373.661 593.762C365.7 593.762 358.8 587.393 358.269 579.431C357.738 570.939 364.638 564.039 373.131 564.039C381.092 564.039 387.992 570.408 387.992 578.9C388.523 586.862 381.623 593.762 373.661 593.762Z" fill="white"/>
    <path d="M537.669 882.5C529.708 882.5 522.808 875.6 523.338 867.639C523.338 859.146 529.707 852.777 538.2 853.308C546.692 853.308 553.061 860.208 553.061 868.169C552.53 875.6 545.631 882.5 537.669 882.5Z" fill="white"/>
    <path d="M470.261 825.707C470.261 834.2 464.423 840.569 455.931 840.569C447.438 840.569 441.069 834.2 441.069 825.707C441.069 817.746 447.438 811.377 455.4 810.846C463.361 810.846 469.731 817.215 470.261 825.707Z" fill="white"/>
    <path d="M373.661 716.904C365.169 716.904 358.8 711.065 358.8 702.573C358.8 694.081 365.169 687.711 373.661 687.711C381.623 687.711 387.992 694.081 388.523 702.042C388.523 710.004 381.623 716.373 373.661 716.904Z" fill="white"/>
    <path d="M537.669 387.828C529.177 387.828 522.808 381.458 523.339 372.966C523.339 365.005 529.708 358.635 537.669 358.635C545.631 358.635 552.531 365.004 552.531 373.497C552.531 380.927 546.162 387.828 537.669 387.828Z" fill="white"/>
    <path d="M399.669 784.312C399.669 775.82 406.038 769.45 414.531 769.981C422.492 769.981 428.861 776.35 428.861 784.312C428.861 792.273 422.492 799.173 414 799.173C406.038 799.173 399.669 792.804 399.669 784.312Z" fill="white"/>
    <path d="M373.131 552.363C364.638 552.363 358.8 545.463 358.8 536.97C358.8 529.009 365.7 522.64 373.661 522.64C381.623 522.64 388.523 529.54 388.523 537.501C387.992 545.993 381.092 552.363 373.131 552.363Z" fill="white"/>
    <path d="M399.669 455.235C399.669 446.743 406.038 440.904 414.531 440.904C422.492 440.904 428.861 447.274 428.861 455.235C428.861 463.197 421.961 470.097 414 470.097C406.038 470.097 399.138 463.197 399.669 455.235Z" fill="white"/>
    <path d="M455.931 428.163C447.438 428.163 441.069 421.794 441.069 413.833C441.069 405.871 447.969 398.971 455.931 398.971C463.892 398.971 470.261 405.34 470.261 413.302C470.261 421.794 463.892 428.163 455.931 428.163Z" fill="white"/>
    <path d="M373.661 758.303C365.7 758.303 359.331 751.934 358.8 744.503C358.8 736.542 364.638 730.173 372.6 729.642C380.561 729.111 387.461 736.011 387.992 743.973C387.992 751.404 381.092 757.773 373.661 758.303Z" fill="white"/>
    <path d="M496.8 853.308C504.761 853.308 510.6 859.677 510.6 868.169C510.6 876.131 503.7 882.5 496.269 882.5C488.308 882.5 481.408 875.069 481.938 867.108C482.469 859.146 488.838 852.777 496.8 853.308Z" fill="white"/>
    <path d="M496.269 387.297C488.308 387.297 481.938 380.928 481.938 372.966C481.938 365.005 488.838 358.635 496.269 358.635C504.231 358.635 510.6 365.005 510.6 372.966C510.6 380.928 504.231 387.297 496.269 387.297Z" fill="white"/>
    <path d="M387.461 496.1C387.461 504.062 380.561 510.431 373.131 510.431C365.169 510.431 358.8 504.062 358.8 496.1C358.8 488.139 365.169 481.77 373.131 481.77C381.092 481.77 387.461 488.139 387.461 496.1Z" fill="white"/>
    <path d="M620.469 922.311C612.507 922.311 606.138 915.941 606.138 907.98C606.138 900.549 611.977 894.18 619.938 893.649C627.9 893.118 634.269 899.488 634.8 907.449C634.8 915.942 628.431 922.311 620.469 922.311Z" fill="white"/>
    <path d="M428.33 826.239C428.33 833.67 421.961 840.039 414.531 840.039C406.569 840.039 400.2 833.67 400.2 825.708C400.2 817.747 407.1 811.378 415.061 811.908C422.492 812.439 428.33 818.278 428.33 826.239Z" fill="white"/>
    <path d="M620.469 317.23C628.431 317.23 634.8 324.13 634.269 332.092C633.739 339.523 627.9 345.892 619.939 345.361C611.977 345.361 605.608 338.992 606.138 330.5C606.138 323.069 612.508 317.23 620.469 317.23Z" fill="white"/>
    <path d="M346.061 619.773C346.061 627.204 339.692 633.573 332.261 633.573C324.3 633.573 317.931 627.204 317.931 619.243C317.931 611.812 324.3 605.442 331.731 605.442C339.162 605.442 346.061 611.812 346.061 619.773Z" fill="white"/>
    <path d="M579.069 922.309C571.108 922.309 565.269 915.94 565.269 908.509C565.269 900.548 571.638 894.178 579.6 894.178C587.561 894.178 593.931 901.078 593.4 909.04C593.4 916.47 587.031 922.309 579.069 922.309Z" fill="white"/>
    <path d="M331.731 565.101C339.692 565.101 346.062 572.001 345.531 579.432C345.531 586.863 339.161 593.232 331.2 593.232C323.238 593.232 316.869 586.862 317.4 578.901C317.931 570.939 324.3 565.101 331.731 565.101Z" fill="white"/>
    <path d="M593.4 332.094C592.869 340.056 585.969 345.894 578.008 344.833C570.577 344.302 564.739 337.933 565.269 329.971C565.8 322.541 572.169 316.702 579.6 316.702C587.561 317.764 593.931 324.663 593.4 332.094Z" fill="white"/>
    <path d="M331.731 647.37C339.162 647.37 345.531 653.739 345.531 661.17C345.531 669.132 339.161 675.501 331.2 675.501C323.238 675.501 317.4 668.601 317.4 660.639C317.931 653.209 324.3 647.37 331.731 647.37Z" fill="white"/>
    <path d="M414 427.631C406.038 427.631 399.669 421.262 399.669 413.3C399.669 405.87 406.038 399.5 413.469 399.5C421.431 399.5 427.269 405.339 427.8 412.77C428.331 421.262 421.962 427.631 414 427.631Z" fill="white"/>
    <path d="M345.531 702.571C345.531 710.002 339.161 716.371 331.2 716.371C323.769 716.371 317.4 710.002 317.4 702.041C317.4 694.079 323.238 688.241 331.2 688.241C339.692 688.241 346.061 694.61 345.531 702.571Z" fill="white"/>
    <path d="M386.93 784.31C386.93 792.271 381.092 798.11 373.131 798.11C365.169 798.11 359.33 792.271 358.8 784.84C358.269 776.879 365.169 770.51 373.131 770.51C381.092 770.51 386.93 776.348 386.93 784.31Z" fill="white"/>
    <path d="M551.469 908.509C551.469 916.471 545.631 922.309 537.669 922.309C529.708 922.309 523.869 916.471 523.338 908.509C523.338 900.548 529.708 894.178 537.669 894.178C545.631 894.178 551.469 900.548 551.469 908.509Z" fill="white"/>
    <path d="M373.131 469.035C365.169 469.035 359.331 463.197 358.8 455.235C358.8 447.804 365.169 441.435 372.6 440.904C380.03 440.904 386.4 447.274 386.4 454.704C386.931 463.197 381.092 469.035 373.131 469.035Z" fill="white"/>
    <path d="M455.93 881.442C447.969 881.442 442.13 875.603 441.6 868.172C441.6 860.211 447.969 853.842 455.4 853.842C462.831 853.842 469.2 860.211 469.2 867.642C469.73 875.073 463.361 881.442 455.93 881.442Z" fill="white"/>
    <path d="M455.4 386.766C447.969 386.766 441.6 380.397 441.6 372.435C441.6 364.474 447.969 358.635 455.4 358.635C463.361 358.635 469.2 365.005 469.2 372.435C469.2 380.928 462.831 387.297 455.4 386.766Z" fill="white"/>
    <path d="M345.531 537.502C345.531 544.933 339.162 551.302 331.731 551.302C324.3 551.302 317.931 544.933 317.931 537.502C317.931 529.54 323.769 523.702 331.731 523.702C339.162 523.702 345.531 530.071 345.531 537.502Z" fill="white"/>
    <path d="M551.469 331.565C551.469 339.526 545.631 345.365 537.669 345.365C529.708 345.365 523.869 338.996 523.869 331.565C523.869 324.134 530.238 317.765 537.669 317.765C545.1 317.765 551.469 323.603 551.469 331.565Z" fill="white"/>
    <path d="M482.469 907.978C482.469 900.547 488.307 894.709 495.738 894.178C503.169 894.178 510.069 900.547 510.069 907.978C510.069 915.409 503.7 921.778 495.738 921.778C488.307 921.778 482.469 915.94 482.469 907.978Z" fill="white"/>
    <path d="M331.731 730.174C339.161 730.174 345 736.543 345.53 743.443C345.53 750.874 339.161 757.243 331.731 757.243C324.3 757.243 317.931 750.874 318.461 743.443C318.461 736.012 324.3 730.174 331.731 730.174Z" fill="white"/>
    <path d="M331.731 509.373C324.3 509.373 318.461 503.534 318.461 496.103C318.461 488.673 324.3 482.834 331.731 482.303C339.161 482.303 345.531 488.673 345.531 496.103C345 503.534 339.161 509.373 331.731 509.373Z" fill="white"/>
    <path d="M510.069 331.034C510.069 338.465 504.23 344.303 496.8 344.834C489.369 344.834 483 339.526 483 332.095C482.469 324.665 488.838 317.765 496.269 317.765C503.7 317.765 509.538 324.134 510.069 331.034Z" fill="white"/>
    <path d="M427.269 867.64C427.269 875.07 421.431 880.909 414 880.909C406.569 880.909 400.731 875.07 400.731 867.64C400.731 860.209 406.569 854.37 414 854.37C421.431 853.84 427.269 860.209 427.269 867.64Z" fill="white"/>
    <path d="M386.93 825.712C386.93 833.143 381.092 839.512 373.661 839.512C366.23 839.512 359.861 833.674 359.861 826.243C359.861 818.812 365.7 812.443 373.131 812.443C380.031 812.443 386.4 818.281 386.93 825.712Z" fill="white"/>
    <path d="M386.4 413.832C386.4 421.263 380.031 427.101 372.6 427.101C365.169 427.101 359.331 421.263 359.331 413.832C359.331 406.401 365.7 400.563 372.6 400.563C380.561 400.563 386.931 406.932 386.4 413.832Z" fill="white"/>
    <path d="M427.269 372.962C427.269 380.392 421.431 386.231 414 386.231C406.569 386.231 400.731 380.392 400.731 372.962C400.731 365.531 406.569 359.692 414 359.692C421.431 359.692 427.269 366.062 427.269 372.962Z" fill="white"/>
    <path d="M304.131 619.769C304.131 627.2 298.292 633.569 290.862 633.038C283.962 633.038 278.123 627.2 277.592 619.769C277.592 612.338 283.431 606.5 290.862 606.5C298.292 607.031 304.131 612.338 304.131 619.769Z" fill="white"/>
    <path d="M304.131 661.171C304.131 668.602 298.823 673.909 291.392 674.44C283.961 674.44 277.592 669.133 277.592 661.702C277.592 654.271 283.962 648.433 290.862 648.433C298.292 648.433 304.131 654.271 304.131 661.171Z" fill="white"/>
    <path d="M345 784.841C345 792.272 339.161 797.58 331.731 797.58C324.3 797.58 318.461 791.211 318.461 783.78C318.461 776.349 324.831 770.511 332.261 771.041C339.692 771.572 345 777.41 345 784.841Z" fill="white"/>
    <path d="M468.669 907.981C468.669 915.412 462.831 921.25 455.4 921.25C448.5 921.25 442.661 914.881 442.131 907.981C442.131 900.55 447.969 894.712 455.4 894.712C462.831 895.243 468.669 900.55 468.669 907.981Z" fill="white"/>
    <path d="M619.938 277.423C627.369 277.423 632.677 282.731 633.208 290.162C633.208 297.593 627.369 303.962 620.469 303.962C613.038 303.962 607.2 297.593 607.2 290.693C607.2 283.262 613.038 277.423 619.938 277.423Z" fill="white"/>
    <path d="M579.069 936.64C586.5 936.64 592.338 942.478 592.338 949.909C592.338 957.34 587.03 962.647 579.6 962.647C572.169 962.647 565.8 956.809 565.8 949.909C565.8 942.478 572.169 936.64 579.069 936.64Z" fill="white"/>
    <path d="M633.208 949.911C633.208 957.342 627.369 963.18 619.407 962.649C612.507 962.649 606.669 956.811 606.669 949.38C606.669 941.949 613.038 936.111 619.938 936.111C627.369 936.641 633.208 942.48 633.208 949.911Z" fill="white"/>
    <path d="M304.131 579.435C304.131 586.335 298.292 592.174 290.862 592.174C283.431 592.174 277.592 585.805 277.592 578.374C277.592 570.943 283.961 565.635 291.392 565.635C298.823 566.697 304.131 572.005 304.131 579.435Z" fill="white"/>
    <path d="M331.731 442.496C339.162 442.496 344.469 447.803 344.469 455.234C344.469 462.665 338.631 469.034 331.2 469.034C323.769 469.034 317.931 462.665 317.931 455.234C318.992 447.803 324.831 442.496 331.731 442.496Z" fill="white"/>
    <path d="M579.069 303.962C571.638 303.962 565.8 297.593 565.8 290.162C565.8 283.262 571.638 277.423 579.069 277.423C586.5 277.423 592.338 283.262 592.338 290.693C592.338 298.123 586.5 303.962 579.069 303.962Z" fill="white"/>
    <path d="M455.4 318.294C462.831 318.294 468.138 323.601 468.669 331.032C468.669 338.463 462.831 344.832 455.931 344.832C449.031 344.832 442.661 338.463 442.661 331.563C442.661 324.132 448.5 318.294 455.4 318.294Z" fill="white"/>
    <path d="M538.2 936.64C545.1 936.64 550.938 943.009 550.938 949.909C550.938 957.34 544.569 963.178 537.138 962.647C529.707 962.116 524.4 956.278 524.931 949.378C524.931 941.947 531.3 936.64 538.2 936.64Z" fill="white"/>
    <path d="M303.6 538.034C303.6 545.465 297.761 550.773 290.331 550.773C283.431 550.773 277.592 544.404 277.592 537.504C277.592 530.604 283.962 524.765 290.862 524.765C298.292 524.765 304.131 530.604 303.6 538.034Z" fill="white"/>
    <path d="M290.862 714.777C283.962 714.777 277.592 708.938 277.592 702.038C277.592 695.138 283.431 688.769 290.331 688.769C297.231 688.769 303.069 694.608 303.069 701.508C304.131 709.469 298.292 714.777 290.862 714.777Z" fill="white"/>
    <path d="M538.2 277.957C545.1 277.957 551.469 283.796 550.938 290.696C550.938 297.596 544.569 303.965 537.669 303.434C530.769 303.434 524.931 297.596 524.931 290.165C524.931 283.265 530.769 277.957 538.2 277.957Z" fill="white"/>
    <path d="M496.269 937.174C503.169 937.174 509.007 943.012 509.007 949.912C509.007 956.812 503.169 962.651 495.738 962.651C488.838 962.651 483.531 956.812 483 949.912C483.531 943.012 489.369 937.174 496.269 937.174Z" fill="white"/>
    <path d="M373.131 880.381C366.231 880.381 360.392 874.543 360.392 867.643C360.392 860.743 366.231 854.904 373.661 854.904C380.561 854.904 385.869 860.742 386.4 867.112C386.4 874.012 380.561 880.381 373.131 880.381Z" fill="white"/>
    <path d="M426.738 907.977C426.738 914.877 421.431 920.716 414.531 920.716C407.1 921.246 401.261 915.408 401.261 908.508C401.261 901.608 407.1 895.769 414 895.769C420.9 895.769 426.738 901.077 426.738 907.977Z" fill="white"/>
    <path d="M291.392 730.702C298.292 730.702 304.13 737.071 303.6 743.971C303.069 750.871 297.761 756.179 290.861 756.179C283.431 756.179 278.123 749.81 278.654 742.91C278.654 736.01 284.492 730.702 291.392 730.702Z" fill="white"/>
    <path d="M509.007 291.226C509.007 298.126 503.169 303.434 496.269 303.434C488.838 303.434 483.531 297.596 483.531 290.165C483.531 283.265 489.369 277.957 496.269 277.957C503.7 277.957 509.007 283.795 509.007 291.226Z" fill="white"/>
    <path d="M303.6 496.105C303.6 503.005 297.761 508.312 290.861 508.312C283.431 508.312 278.123 502.474 278.123 495.574C278.123 488.674 283.961 483.366 290.861 483.366C297.761 483.366 303.6 489.205 303.6 496.105Z" fill="white"/>
    <path d="M385.869 372.965C385.869 379.865 380.561 385.703 373.661 385.703C366.761 385.703 360.392 379.865 360.923 372.965C360.923 366.065 366.762 360.226 374.192 360.226C380.562 360.757 385.869 366.065 385.869 372.965Z" fill="white"/>
    <path d="M344.469 413.832C344.469 420.732 338.631 426.04 331.731 426.04C324.3 426.04 318.992 420.201 318.992 412.771C319.523 405.871 324.831 400.563 331.731 400.563C339.162 401.625 344.469 406.932 344.469 413.832Z" fill="white"/>
    <path d="M331.731 838.449C324.831 838.449 319.523 833.141 318.992 825.71C318.992 818.81 324.3 812.972 331.2 812.972C338.631 812.972 344.469 818.81 343.938 825.71C344.469 833.141 338.631 838.449 331.731 838.449Z" fill="white"/>
    <path d="M426.738 332.625C426.207 339.525 420.369 344.832 413.469 344.301C406.569 343.771 401.261 337.932 401.792 331.032C402.323 324.132 408.692 318.294 415.592 318.825C421.961 319.355 426.738 325.194 426.738 332.625Z" fill="white"/>
    <path d="M468.138 949.912C468.138 956.812 461.769 962.12 455.4 962.12C448.5 961.589 443.192 955.751 443.723 948.851C444.254 941.951 449.561 937.174 455.931 937.174C462.831 937.705 468.138 943.543 468.138 949.912Z" fill="white"/>
    <path d="M619.938 978.573C626.838 978.573 632.677 983.88 632.677 990.78C632.677 997.68 626.838 1003.52 619.938 1002.99C613.569 1002.99 608.261 997.68 607.731 990.78C607.731 983.88 613.038 978.573 619.938 978.573Z" fill="white"/>
    <path d="M303.6 784.309C303.6 791.209 297.761 796.517 290.861 796.517C283.961 796.517 279.185 791.209 278.654 784.84C278.654 777.94 283.961 772.101 290.861 772.101C297.231 772.101 303.069 777.94 303.6 784.309Z" fill="white"/>
    <path d="M291.392 467.442C284.492 467.442 279.185 462.134 279.185 455.234C279.185 448.334 285.023 442.496 291.392 443.027C297.761 443.027 303.6 448.865 303.6 455.234C303.6 461.604 297.761 467.442 291.392 467.442Z" fill="white"/>
    <path d="M591.808 990.778C591.808 997.147 585.969 1003.52 579.069 1002.99C572.169 1002.99 566.861 997.147 566.861 990.247C566.861 983.347 572.169 978.57 579.069 978.57C585.969 978.039 591.808 983.878 591.808 990.778Z" fill="white"/>
    <path d="M468.138 291.226C467.607 298.126 461.769 303.434 454.869 302.903C447.969 302.372 442.662 297.065 443.192 289.634C443.723 283.265 449.031 277.957 455.931 277.957C462.3 278.488 468.138 284.326 468.138 291.226Z" fill="white"/>
    <path d="M249.992 649.493C256.892 649.493 261.669 654.801 261.669 661.701C261.669 668.601 255.831 674.439 248.931 673.908C242.561 673.908 237.254 668.07 237.254 661.701C237.254 654.801 243.092 648.962 249.992 649.493Z" fill="white"/>
    <path d="M248.931 591.11C242.561 591.11 236.723 585.272 236.723 578.902C236.723 572.002 242.561 566.164 249.461 566.695C256.361 566.695 261.669 572.533 261.138 579.433C261.138 586.333 255.831 591.11 248.931 591.11Z" fill="white"/>
    <path d="M579.069 237.086C585.969 237.086 591.808 242.394 591.808 249.294C591.808 255.663 585.969 261.502 579.6 261.502C572.7 261.502 567.392 256.194 567.392 249.294C567.392 242.394 572.169 237.086 579.069 237.086Z" fill="white"/>
    <path d="M261.669 619.772C261.669 626.672 256.361 631.98 249.992 631.98C243.092 631.98 237.254 626.672 237.254 619.772C237.254 612.872 243.092 607.034 249.992 607.565C256.361 607.565 261.669 613.403 261.669 619.772Z" fill="white"/>
    <path d="M619.938 261.502C613.038 261.502 607.731 255.663 607.731 248.763C607.731 241.863 613.038 237.086 619.938 237.086C626.308 237.086 632.146 242.394 632.146 248.763C632.677 255.663 626.838 261.502 619.938 261.502Z" fill="white"/>
    <path d="M549.877 990.78C549.877 997.15 544.569 1002.99 537.669 1002.99C531.3 1002.99 525.462 997.68 525.462 990.78C525.462 983.88 531.3 978.573 538.2 978.573C544.569 978.573 549.877 983.88 549.877 990.78Z" fill="white"/>
    <path d="M249.462 714.247C243.092 714.247 237.254 708.939 237.254 702.039C237.254 695.67 242.562 689.832 249.462 689.832C255.831 689.832 261.669 695.139 261.669 701.509C261.669 708.939 256.362 714.247 249.462 714.247Z" fill="white"/>
    <path d="M549.877 249.294C549.877 255.663 544.569 261.502 537.669 260.971C531.3 260.971 525.461 255.663 525.992 248.763C525.992 242.394 531.3 237.086 538.2 237.086C544.569 237.086 549.877 242.925 549.877 249.294Z" fill="white"/>
    <path d="M248.931 549.712C242.561 549.712 237.254 543.874 237.254 537.505C237.254 531.135 243.092 525.828 249.462 525.828C255.831 525.828 261.138 531.666 261.138 538.035C261.138 544.404 255.831 549.712 248.931 549.712Z" fill="white"/>
    <path d="M373.661 920.188C366.761 920.188 361.454 914.881 361.454 908.511C361.454 902.142 366.761 896.303 373.131 896.303C379.5 896.303 385.338 901.611 385.338 907.98C385.338 914.88 380.03 920.188 373.661 920.188Z" fill="white"/>
    <path d="M331.731 879.318C325.361 879.318 319.523 874.01 319.523 867.641C319.523 860.741 324.83 855.433 331.2 855.433C337.569 855.433 343.407 860.741 343.407 867.641C343.938 874.01 338.631 879.318 331.731 879.318Z" fill="white"/>
    <path d="M385.338 331.564C385.338 337.933 379.5 343.772 373.131 343.241C366.231 343.241 361.454 337.402 361.454 331.033C361.454 324.664 366.761 319.887 373.131 319.887C380.031 319.356 385.338 325.195 385.338 331.564Z" fill="white"/>
    <path d="M331.731 384.639C324.831 384.639 320.054 378.801 320.054 372.432C320.054 366.063 325.892 360.755 332.792 360.755C339.161 361.286 343.938 366.063 343.938 372.963C343.408 379.863 338.1 385.17 331.731 384.639Z" fill="white"/>
    <path d="M302.539 826.24C302.539 833.14 297.231 837.917 290.331 837.917C283.961 837.917 279.185 832.609 279.185 826.24C279.185 819.871 284.492 814.032 291.392 814.563C297.761 814.032 303.069 819.34 302.539 826.24Z" fill="white"/>
    <path d="M425.677 949.379C425.677 955.748 420.369 961.587 414 961.587C407.631 961.587 402.323 956.81 402.323 950.44C401.792 943.54 407.1 938.233 413.469 937.702C419.838 937.702 425.677 943.01 425.677 949.379Z" fill="white"/>
    <path d="M507.946 990.78C507.946 997.68 502.638 1002.46 495.738 1002.46C489.369 1002.46 484.592 997.15 484.592 990.78C484.592 984.411 489.9 978.573 496.8 979.103C503.169 978.573 507.946 984.411 507.946 990.78Z" fill="white"/>
    <path d="M249.461 732.294C256.361 732.294 261.669 737.602 261.138 744.502C261.138 750.871 255.3 756.179 249.461 756.179C243.092 756.179 237.784 750.871 237.784 743.971C237.784 737.071 243.092 731.763 249.461 732.294Z" fill="white"/>
    <path d="M414 279.02C420.369 279.02 425.677 284.327 425.677 290.697C425.677 297.066 419.838 302.904 413.469 302.904C407.1 302.904 401.792 297.066 401.792 290.697C402.854 283.797 407.631 279.02 414 279.02Z" fill="white"/>
    <path d="M302.539 413.302C302.539 419.671 297.761 424.979 291.392 424.979C284.492 425.51 279.185 420.202 279.185 413.833C279.185 407.464 284.492 401.625 290.862 401.625C297.231 402.156 302.539 406.933 302.539 413.302Z" fill="white"/>
    <path d="M507.946 249.295C507.946 255.664 503.169 260.441 496.269 260.441C489.9 260.441 484.592 255.134 484.592 249.295C484.592 242.926 490.431 237.087 496.8 237.618C503.169 237.618 507.946 242.926 507.946 249.295Z" fill="white"/>
    <path d="M261.138 496.1C261.138 502.469 255.3 507.777 249.461 507.777C243.092 507.777 237.784 501.938 237.784 495.569C238.315 489.2 243.092 484.423 249.992 484.423C256.361 484.954 261.138 489.731 261.138 496.1Z" fill="white"/>
    <path d="M260.607 784.312C260.607 790.681 255.3 795.989 248.93 795.458C242.561 795.458 237.784 790.15 237.784 783.781C237.784 777.412 243.092 773.166 248.93 772.635C255.83 773.166 261.138 778.473 260.607 784.312Z" fill="white"/>
    <path d="M455.93 979.101C462.3 979.101 467.077 984.939 467.077 991.309C466.546 997.678 461.238 1002.45 454.869 1001.92C449.03 1001.39 444.253 996.616 444.253 990.247C444.253 983.878 449.561 979.101 455.93 979.101Z" fill="white"/>
    <path d="M342.877 908.509C342.877 914.347 337.569 919.655 331.731 919.655C325.361 919.655 320.054 914.347 320.054 907.978C320.054 902.139 325.361 896.832 331.2 896.832C338.1 896.832 342.877 902.14 342.877 908.509Z" fill="white"/>
    <path d="M455.4 237.616C461.238 237.616 466.546 242.393 467.077 248.231C467.608 254.6 462.3 259.908 455.93 259.908C449.561 259.908 444.253 254.6 444.253 248.231C444.253 242.923 449.031 238.146 455.4 237.616Z" fill="white"/>
    <path d="M260.607 455.236C260.607 461.074 255.831 466.382 249.461 466.382C243.092 466.382 237.784 461.074 237.784 454.705C237.784 448.336 243.092 443.559 249.461 443.559C255.831 444.089 260.607 449.397 260.607 455.236Z" fill="white"/>
    <path d="M608.792 1031.65C608.792 1025.28 614.1 1020.5 620.469 1020.5C626.307 1021.03 631.084 1025.81 631.084 1032.18C631.084 1038.55 625.777 1043.32 619.407 1043.32C613.569 1042.79 608.792 1038.02 608.792 1031.65Z" fill="white"/>
    <path d="M373.661 961.057C367.823 961.057 362.515 956.28 362.515 950.442C362.515 944.072 367.292 938.765 373.661 938.765C380.031 938.765 384.808 943.542 384.808 949.911C384.277 955.749 379.5 961.057 373.661 961.057Z" fill="white"/>
    <path d="M331.731 342.711C325.362 342.711 320.584 337.935 320.584 331.565C320.584 325.196 325.361 320.419 331.2 320.419C337.569 320.419 342.877 325.196 342.877 331.565C342.877 337.935 338.1 342.711 331.731 342.711Z" fill="white"/>
    <path d="M291.392 856.495C297.231 856.495 302.538 861.803 302.538 867.641C302.538 874.01 297.231 878.787 290.861 878.787C284.492 878.256 280.246 873.479 280.246 867.11C280.246 860.741 285.023 855.964 291.392 856.495Z" fill="white"/>
    <path d="M579.6 1043.33C573.23 1043.33 568.454 1038.55 568.454 1032.18C568.454 1025.81 573.231 1021.03 579.069 1021.03C585.438 1021.03 590.746 1025.81 590.746 1032.18C590.746 1038.55 585.438 1043.33 579.6 1043.33Z" fill="white"/>
    <path d="M219.208 578.9C219.208 584.738 214.431 590.046 208.061 590.046C201.692 590.046 196.915 585.269 196.915 579.431C196.915 573.061 201.692 568.284 207.531 568.284C213.9 567.753 219.208 573.061 219.208 578.9Z" fill="white"/>
    <path d="M219.208 620.304C219.208 626.143 213.9 630.92 207.531 630.92C201.161 630.92 196.915 625.612 196.915 619.774C196.915 613.405 202.223 608.628 208.061 609.158C214.431 609.158 219.208 613.935 219.208 620.304Z" fill="white"/>
    <path d="M373.131 301.84C366.761 301.84 361.984 297.064 361.984 290.694C361.984 284.856 366.761 279.548 373.131 279.548C378.969 279.548 384.277 284.325 384.277 290.694C384.277 297.064 379.5 301.84 373.131 301.84Z" fill="white"/>
    <path d="M302.007 372.964C302.007 378.802 297.231 384.11 290.861 384.11C285.023 384.11 279.715 379.333 279.715 372.964C279.715 366.595 284.492 361.818 290.861 361.818C297.231 361.818 302.007 366.595 302.007 372.964Z" fill="white"/>
    <path d="M590.746 207.896C590.746 213.734 585.438 218.511 579.069 218.511C572.7 218.511 568.454 213.734 568.454 207.365C568.454 200.995 573.761 196.218 579.6 196.749C585.969 196.749 590.746 202.057 590.746 207.896Z" fill="white"/>
    <path d="M631.084 207.897C631.084 213.735 626.308 219.043 619.938 219.043C613.569 219.043 608.792 214.266 608.792 207.897C608.792 201.528 613.569 196.75 619.938 196.75C626.308 196.75 631.084 201.528 631.084 207.897Z" fill="white"/>
    <path d="M548.815 1032.18C548.815 1038.55 544.038 1043.33 537.669 1043.33C531.831 1043.33 527.054 1038.55 527.054 1032.71C527.054 1026.87 531.831 1021.56 538.2 1021.03C543.507 1021.03 548.815 1025.81 548.815 1032.18Z" fill="white"/>
    <path d="M208.061 650.557C214.431 650.557 219.208 655.865 218.677 661.703C218.677 667.542 213.369 672.849 207 672.319C201.162 672.319 196.385 667.011 196.385 660.642C196.916 654.803 201.692 650.026 208.061 650.557Z" fill="white"/>
    <path d="M548.815 207.897C548.815 214.266 544.038 218.512 537.669 218.512C531.831 218.512 527.054 213.735 527.054 207.897C527.054 202.058 532.361 196.75 538.2 196.75C544.038 196.75 548.815 201.528 548.815 207.897Z" fill="white"/>
    <path d="M207.531 691.423C213.9 691.423 218.677 696.2 218.677 702.039C218.677 707.877 213.369 713.185 207.531 713.185C201.692 713.185 196.915 708.408 196.915 702.569C196.915 696.2 201.692 691.423 207.531 691.423Z" fill="white"/>
    <path d="M218.677 538.031C218.677 543.869 213.369 549.177 207.531 548.646C201.692 548.646 196.915 543.339 196.915 536.97C196.915 531.131 201.692 526.885 207.531 526.885C213.9 526.885 219.207 531.662 218.677 538.031Z" fill="white"/>
    <path d="M414 1001.4C408.162 1001.4 402.854 996.089 402.854 990.25C402.854 984.412 407.631 979.635 414 979.635C419.839 979.635 424.615 984.412 424.615 990.25C425.146 996.62 420.369 1001.4 414 1001.4Z" fill="white"/>
    <path d="M249.462 815.097C255.3 815.097 260.077 819.343 260.077 825.712C260.077 832.082 255.3 836.859 249.462 836.859C243.623 836.859 238.315 831.551 238.315 825.712C238.846 819.874 243.623 815.097 249.462 815.097Z" fill="white"/>
    <path d="M414 238.679C419.839 238.679 424.615 243.456 424.615 249.294C424.615 255.663 419.838 260.44 413.469 260.44C407.631 260.44 402.854 255.132 402.854 249.825C402.854 243.456 408.162 238.148 414 238.679Z" fill="white"/>
    <path d="M260.077 413.834C260.077 419.673 255.3 424.45 249.462 424.45C243.623 424.45 238.315 419.142 238.315 413.303C238.315 407.465 243.623 402.688 249.462 402.688C255.831 403.219 260.077 407.996 260.077 413.834Z" fill="white"/>
    <path d="M506.885 1032.18C506.885 1038.02 502.108 1042.8 496.269 1042.8C489.9 1042.8 485.123 1038.02 485.654 1031.65C485.654 1025.81 490.961 1021.03 496.8 1021.03C502.108 1021.56 507.415 1026.34 506.885 1032.18Z" fill="white"/>
    <path d="M197.446 743.973C197.446 738.135 201.692 733.358 207.531 732.827C213.369 732.827 218.146 737.604 218.677 743.443C218.677 749.281 213.9 754.058 208.061 754.058C202.223 754.589 197.446 749.812 197.446 743.973Z" fill="white"/>
    <path d="M496.8 217.981C490.961 217.981 486.185 213.735 486.185 207.897C486.185 202.058 490.431 197.281 496.269 196.75C502.108 196.75 506.885 201.527 507.415 207.366C506.885 213.204 502.638 217.981 496.8 217.981Z" fill="white"/>
    <path d="M208.061 485.485C213.9 485.485 218.677 490.793 218.677 496.631C218.677 502.47 213.9 507.247 208.061 507.247C202.223 507.247 197.446 502.47 197.446 496.631C197.446 490.262 202.223 485.485 208.061 485.485Z" fill="white"/>
    <path d="M301.477 908.512C301.477 914.351 296.7 919.128 290.33 918.597C284.492 918.597 279.715 913.289 280.246 907.451C280.777 901.612 285.023 897.366 290.861 897.366C296.7 897.897 301.477 902.674 301.477 908.512Z" fill="white"/>
    <path d="M331.2 959.995C325.361 959.995 320.585 954.687 321.115 948.849C321.646 943.01 326.423 938.233 332.261 938.764C338.1 939.295 342.346 943.541 341.815 949.379C342.346 955.749 337.569 960.526 331.2 959.995Z" fill="white"/>
    <path d="M280.246 331.032C280.246 325.193 285.554 320.947 291.392 320.947C297.231 321.478 300.946 325.724 300.946 331.563C300.946 337.401 296.169 341.647 290.861 341.647C285.023 341.647 280.246 336.87 280.246 331.032Z" fill="white"/>
    <path d="M331.731 280.611C337.569 280.611 341.815 284.858 342.346 290.165C342.877 296.004 338.1 300.781 332.261 301.311C326.423 301.311 321.646 296.535 321.646 290.696C321.115 284.858 325.892 280.611 331.731 280.611Z" fill="white"/>
    <path d="M373.131 1000.86C367.292 1000.86 363.046 996.617 363.046 990.779C363.046 984.94 367.292 980.694 373.131 980.164C378.969 980.164 383.746 984.94 383.746 990.779C383.746 996.087 378.969 1000.86 373.131 1000.86Z" fill="white"/>
    <path d="M465.484 1032.71C465.484 1038.55 460.707 1042.8 454.869 1042.8C449.561 1042.8 444.784 1038.02 444.784 1032.18C444.784 1026.34 449.561 1021.56 455.93 1022.1C461.769 1022.1 466.015 1026.87 465.484 1032.71Z" fill="white"/>
    <path d="M218.146 784.31C218.146 790.148 213.9 794.394 208.061 794.394C202.223 794.394 197.446 789.618 197.446 783.779C197.446 778.471 202.223 773.694 208.061 774.225C213.9 774.225 218.146 778.471 218.146 784.31Z" fill="white"/>
    <path d="M455.93 197.811C461.769 197.811 466.015 202.588 465.484 207.896C465.484 213.204 460.707 217.981 455.4 217.981C449.561 217.981 444.784 212.673 445.315 207.365C445.315 201.527 450.092 197.281 455.93 197.811Z" fill="white"/>
    <path d="M259.546 867.639C259.546 872.947 254.769 877.724 248.931 877.724C243.092 877.724 238.846 872.947 238.846 866.578C239.377 860.739 243.623 857.024 249.462 857.024C255.3 857.555 260.077 862.332 259.546 867.639Z" fill="white"/>
    <path d="M218.146 455.761C218.146 461.069 213.369 465.846 208.061 465.846C202.753 465.846 197.977 461.069 197.977 455.761C197.977 449.923 202.753 445.146 208.592 445.677C213.9 445.677 218.146 449.923 218.146 455.761Z" fill="white"/>
    <path d="M259.546 372.965C259.546 378.273 254.769 383.05 248.931 383.05C243.092 383.05 238.846 378.804 238.846 372.965C238.846 367.657 243.623 362.88 248.931 362.88C254.769 362.88 259.546 367.657 259.546 372.965Z" fill="white"/>
    <path d="M373.131 238.678C378.438 238.678 383.215 243.455 383.215 248.763C383.215 254.07 378.438 258.847 373.131 258.847C367.292 258.847 363.046 254.601 363.046 248.763C363.046 243.986 367.823 239.209 373.131 238.678Z" fill="white"/>
    <path d="M630.023 1073.05C630.023 1078.35 625.246 1083.13 619.938 1083.13C614.631 1083.13 609.854 1078.35 609.854 1073.05C609.854 1067.74 614.631 1062.96 619.938 1062.96C625.777 1062.96 630.023 1067.21 630.023 1073.05Z" fill="white"/>
    <path d="M589.154 1073.05C589.154 1078.35 584.377 1083.13 579.069 1083.13C573.761 1083.13 568.984 1077.82 568.984 1072.52C568.984 1067.21 573.761 1062.96 579.069 1062.96C584.908 1062.96 589.154 1067.21 589.154 1073.05Z" fill="white"/>
    <path d="M176.746 579.431C176.746 584.739 171.969 588.985 166.661 588.985C161.354 588.985 156.577 584.208 156.577 578.9C156.577 573.592 161.354 569.346 166.661 569.346C172.5 569.346 177.277 573.592 176.746 579.431Z" fill="white"/>
    <path d="M167.192 671.254C161.354 671.254 157.108 667.007 157.108 661.169C157.108 655.861 161.354 651.615 166.661 651.615C171.969 651.615 176.215 655.861 176.746 661.169C177.277 666.477 173.031 671.254 167.192 671.254Z" fill="white"/>
    <path d="M620.469 156.942C626.307 156.942 630.554 161.719 630.023 167.027C630.023 172.335 625.246 176.581 619.938 176.581C614.631 176.581 609.854 171.804 609.854 165.966C610.384 161.189 615.161 156.942 620.469 156.942Z" fill="white"/>
    <path d="M579.069 156.942C584.908 156.942 589.154 161.189 589.154 167.027C589.154 172.335 584.907 176.581 579.6 177.112C574.292 177.112 569.515 172.866 569.515 167.027C569.515 161.719 573.761 156.942 579.069 156.942Z" fill="white"/>
    <path d="M547.754 1073.05C547.754 1078.35 543.507 1082.6 538.2 1083.13C532.892 1083.13 528.115 1078.88 528.115 1073.05C528.115 1067.21 532.892 1062.96 538.2 1062.96C543.507 1062.96 547.754 1067.74 547.754 1073.05Z" fill="white"/>
    <path d="M176.746 619.77C176.746 625.077 172.5 629.323 167.192 629.854C161.885 629.854 157.108 625.608 157.108 619.77C157.108 614.462 161.354 610.216 166.661 610.216C172.5 609.685 176.746 614.462 176.746 619.77Z" fill="white"/>
    <path d="M423.554 1032.18C423.554 1037.49 419.308 1041.73 414 1041.73C408.692 1041.73 404.446 1037.49 403.915 1032.18C403.915 1026.34 408.162 1022.1 414 1022.1C419.308 1022.63 423.554 1026.87 423.554 1032.18Z" fill="white"/>
    <path d="M217.615 826.239C217.615 831.546 213.369 835.792 208.061 835.792C202.223 835.792 197.977 831.015 197.977 825.708C197.977 820.4 202.753 816.154 208.061 816.154C213.369 816.154 217.615 820.931 217.615 826.239Z" fill="white"/>
    <path d="M208.062 423.386C202.754 423.386 198.508 419.14 198.508 413.833C198.508 408.525 202.754 404.279 208.062 404.279C213.369 404.279 217.616 408.525 217.616 413.833C217.616 419.14 213.369 423.386 208.062 423.386Z" fill="white"/>
    <path d="M167.192 692.486C172.5 692.486 176.746 696.732 176.746 702.04C176.746 707.347 171.969 711.593 167.192 711.593C161.885 711.593 157.638 707.347 157.638 702.04C157.638 696.732 161.885 692.486 167.192 692.486Z" fill="white"/>
    <path d="M414 197.808C419.308 197.808 423.554 202.054 423.554 207.892C423.554 213.2 419.308 217.446 414 217.446C408.692 217.446 404.446 212.669 404.446 207.892C404.446 202.054 409.223 197.808 414 197.808Z" fill="white"/>
    <path d="M537.669 176.581C532.361 176.581 528.115 171.804 528.115 166.496C528.115 161.188 532.892 156.942 538.2 156.942C543.507 156.942 547.754 161.189 547.754 167.027C547.223 172.335 542.977 176.581 537.669 176.581Z" fill="white"/>
    <path d="M176.746 537.501C176.746 542.809 172.5 547.055 167.192 547.055C161.885 547.055 157.638 542.809 157.638 537.501C157.638 532.193 161.885 527.947 167.192 527.947C172.5 527.947 176.746 532.193 176.746 537.501Z" fill="white"/>
    <path d="M290.861 281.14C296.169 281.14 300.415 285.386 300.946 290.693C300.946 296.001 296.7 300.247 291.392 300.247C286.084 300.247 282.369 296.532 281.838 291.224C281.307 285.386 285.554 281.14 290.861 281.14Z" fill="white"/>
    <path d="M505.823 1073.05C505.823 1078.36 501.577 1082.6 495.738 1082.6C490.431 1082.6 486.715 1078.36 486.715 1073.58C486.715 1068.27 490.962 1063.49 496.269 1063.49C501.577 1062.96 505.823 1067.74 505.823 1073.05Z" fill="white"/>
    <path d="M290.861 959.462C285.554 959.462 281.307 954.685 281.838 949.377C281.838 944.069 286.615 939.823 291.923 940.354C297.231 940.885 300.946 945.131 300.946 949.908C300.415 955.216 295.638 959.462 290.861 959.462Z" fill="white"/>
    <path d="M167.192 752.992C161.885 752.992 158.169 749.277 157.638 743.969C157.638 738.662 161.885 733.885 167.192 733.885C171.969 733.885 176.215 738.131 176.746 742.908C176.746 748.746 172.5 752.992 167.192 752.992Z" fill="white"/>
    <path d="M496.269 176.047C490.962 176.047 487.246 172.332 487.246 167.024C487.246 161.716 491.492 156.939 496.8 157.47C501.577 157.47 505.823 162.247 506.354 167.024C505.823 171.801 501.577 176.047 496.269 176.047Z" fill="white"/>
    <path d="M259.015 908.511C259.015 913.819 255.3 917.534 249.992 918.065C244.685 918.065 239.907 913.819 239.907 908.511C239.907 903.203 244.685 898.957 249.992 898.957C254.769 898.957 259.015 903.203 259.015 908.511Z" fill="white"/>
    <path d="M167.192 505.124C161.884 505.124 158.169 501.409 158.169 496.101C158.169 490.793 162.415 486.016 167.723 486.547C172.5 486.547 176.746 491.324 177.277 496.101C176.746 500.878 172.5 505.655 167.192 505.124Z" fill="white"/>
    <path d="M322.177 990.78C322.177 985.472 325.892 981.757 331.2 981.226C336.508 981.226 341.285 984.942 341.285 990.249C341.285 995.557 336.508 999.803 331.731 999.803C326.423 999.803 322.177 995.557 322.177 990.78Z" fill="white"/>
    <path d="M331.731 239.741C337.038 239.741 340.754 243.987 340.754 249.295C340.754 254.071 336.507 258.848 331.2 258.848C325.892 258.848 321.646 254.602 321.646 248.764C322.708 243.456 326.954 239.741 331.731 239.741Z" fill="white"/>
    <path d="M248.931 340.589C243.623 340.589 239.907 336.343 239.907 331.035C239.907 326.258 244.154 321.481 249.462 321.481C254.769 321.481 259.015 325.728 259.015 331.566C258.485 336.874 254.238 340.589 248.931 340.589Z" fill="white"/>
    <path d="M446.377 1073.05C446.377 1067.74 450.623 1064.02 455.4 1064.02C460.708 1064.02 464.423 1068.27 464.423 1073.58C464.423 1078.36 460.177 1082.07 455.4 1082.6C450.623 1082.07 446.377 1077.82 446.377 1073.05Z" fill="white"/>
    <path d="M373.131 1023.15C377.907 1023.15 382.684 1026.87 382.684 1032.18C382.684 1036.95 378.969 1041.2 374.192 1041.2C368.884 1041.73 364.638 1037.48 364.638 1032.71C364.107 1027.4 367.823 1023.15 373.131 1023.15Z" fill="white"/>
    <path d="M207.531 876.662C202.223 876.662 198.508 872.416 198.508 867.108C198.508 862.331 202.754 858.616 207.531 858.616C212.839 858.616 216.554 862.862 216.554 867.639C217.085 872.416 212.839 876.662 207.531 876.662Z" fill="white"/>
    <path d="M176.215 784.312C176.215 789.62 171.969 793.335 166.661 793.335C161.884 793.335 158.169 789.089 158.169 784.312C158.169 779.005 162.415 775.289 167.723 775.289C172.5 775.82 176.215 779.535 176.215 784.312Z" fill="white"/>
    <path d="M207.531 363.943C212.308 363.943 216.554 367.658 216.554 372.435C217.085 377.743 212.839 381.989 207.531 381.989C202.754 381.989 198.508 378.274 198.508 373.497C198.508 368.189 202.754 363.943 207.531 363.943Z" fill="white"/>
    <path d="M455.93 158C460.707 158 464.423 161.715 464.423 167.023C464.423 172.331 460.177 176.046 455.4 176.046C450.623 176.046 446.907 171.8 446.907 167.023C446.376 161.715 450.623 158 455.93 158Z" fill="white"/>
    <path d="M167.723 464.258C162.946 464.258 158.169 460.543 158.169 455.235C158.169 450.458 161.884 446.743 166.661 446.212C171.438 446.212 175.684 449.397 175.684 454.173C176.215 459.481 172.5 464.258 167.723 464.258Z" fill="white"/>
    <path d="M382.154 207.365C382.154 212.142 377.908 216.388 372.6 216.388C367.823 216.388 364.108 212.142 364.108 207.365C364.108 202.588 367.823 198.342 372.6 198.342C377.908 198.342 382.154 202.588 382.154 207.365Z" fill="white"/>
    <path d="M628.962 1113.92C628.962 1118.69 625.246 1122.94 620.469 1122.94C615.692 1122.94 611.446 1119.22 611.446 1114.45C611.446 1109.67 615.692 1105.42 619.938 1105.42C624.715 1105.42 628.431 1109.14 628.962 1113.92Z" fill="white"/>
    <path d="M249.462 958.4C244.685 958.4 240.438 954.685 240.438 949.908C240.438 945.131 244.685 940.885 248.931 940.885C253.177 940.885 257.423 945.131 257.423 949.377C258.485 954.154 254.239 958.4 249.462 958.4Z" fill="white"/>
    <path d="M117.3 619.771C117.3 614.995 121.015 611.279 125.792 611.279C130.569 611.279 134.815 615.525 134.284 620.302C134.284 624.548 130.038 628.795 125.792 628.795C121.015 628.795 117.3 625.079 117.3 619.771Z" fill="white"/>
    <path d="M299.354 990.249C299.354 995.026 295.638 999.273 290.862 999.273C286.085 999.273 281.838 995.027 281.838 990.78C281.838 986.534 286.084 982.288 290.331 982.288C295.107 981.757 299.354 985.472 299.354 990.249Z" fill="white"/>
    <path d="M405.508 1073.05C405.508 1068.27 409.223 1064.56 414 1064.56C418.777 1064.56 422.492 1068.27 422.492 1072.52C422.492 1077.3 418.777 1081.54 414 1081.54C409.754 1081.54 405.508 1077.83 405.508 1073.05Z" fill="white"/>
    <path d="M588.092 1114.45C588.092 1119.22 584.377 1122.94 579.069 1122.94C574.292 1122.94 570.577 1119.22 570.577 1114.45C570.577 1109.67 574.823 1105.42 579.069 1105.42C583.846 1105.42 588.092 1109.67 588.092 1114.45Z" fill="white"/>
    <path d="M619.938 134.116C615.161 134.116 610.915 129.87 611.446 125.093C611.446 120.316 616.223 116.601 620.469 116.601C624.715 116.601 628.431 120.847 628.431 125.093C628.961 130.401 625.246 134.116 619.938 134.116Z" fill="white"/>
    <path d="M175.685 826.242C175.685 831.019 171.439 834.734 166.662 834.203C162.416 833.673 158.7 829.957 158.7 825.18C158.7 820.934 162.947 817.219 167.193 816.688C171.97 817.219 175.685 821.465 175.685 826.242Z" fill="white"/>
    <path d="M125.261 669.662C120.485 669.662 116.769 665.416 116.769 660.639C116.769 655.862 121.015 652.678 125.261 652.678C129.508 652.678 133.754 656.393 133.754 661.17C134.284 665.947 130.569 669.662 125.261 669.662Z" fill="white"/>
    <path d="M240.969 290.694C240.969 285.917 244.684 282.202 249.992 282.202C254.769 282.202 257.954 286.448 257.954 290.694C257.954 295.471 253.707 299.717 248.931 299.187C244.684 299.187 240.969 295.471 240.969 290.694Z" fill="white"/>
    <path d="M299.354 249.295C299.354 254.071 295.107 257.787 290.33 257.256C285.554 256.725 282.369 253.01 282.369 248.233C282.369 243.987 286.615 240.271 290.861 239.741C295.638 240.802 299.354 244.518 299.354 249.295Z" fill="white"/>
    <path d="M537.669 1122.94C532.892 1122.94 529.177 1118.7 529.708 1113.92C530.238 1109.14 533.954 1105.96 538.2 1105.96C542.446 1105.96 546.692 1110.2 546.692 1114.45C546.692 1119.23 542.446 1122.94 537.669 1122.94Z" fill="white"/>
    <path d="M117.3 579.433C117.3 574.657 121.015 570.41 125.792 570.941C130.569 570.941 134.284 574.656 134.284 578.903C134.284 583.679 130.038 587.926 125.792 587.926C121.015 587.395 117.3 583.68 117.3 579.433Z" fill="white"/>
    <path d="M579.6 133.586C574.823 133.586 570.577 129.87 570.577 125.093C570.577 120.847 574.292 116.601 579.069 116.601C583.846 116.601 588.092 120.316 588.092 125.093C587.561 129.87 584.377 133.586 579.6 133.586Z" fill="white"/>
    <path d="M405.508 166.496C405.508 161.719 409.223 158.534 414 158.534C418.777 158.534 422.492 162.78 422.492 167.557C421.961 172.334 418.246 175.519 413.469 175.519C409.223 174.988 405.508 171.273 405.508 166.496Z" fill="white"/>
    <path d="M125.792 710.533C121.015 710.533 117.3 707.348 117.3 702.571C117.3 697.794 121.015 693.548 125.792 693.548C130.569 693.548 134.284 697.264 134.284 702.041C134.284 706.817 130.569 710.533 125.792 710.533Z" fill="white"/>
    <path d="M216.023 908.509C216.023 913.286 212.308 916.471 207.531 916.471C202.754 916.471 199.039 912.755 199.039 907.978C199.039 903.201 203.284 899.486 208.061 899.486C212.838 900.017 216.554 903.732 216.023 908.509Z" fill="white"/>
    <path d="M175.685 413.831C175.685 418.608 171.97 421.793 167.193 421.793C162.416 421.793 158.7 417.547 158.7 412.77C159.231 407.993 162.946 404.808 167.723 404.808C171.969 405.87 175.685 409.585 175.685 413.831Z" fill="white"/>
    <path d="M340.223 1031.65C340.223 1036.42 337.038 1040.14 332.261 1040.14C327.485 1040.14 323.769 1036.95 323.238 1032.18C322.708 1027.4 326.954 1023.15 331.731 1023.15C335.977 1023.68 339.692 1027.4 340.223 1031.65Z" fill="white"/>
    <path d="M331.2 215.858C326.423 215.858 323.238 212.143 323.238 207.366C323.238 202.589 327.485 199.404 331.731 199.404C335.977 199.404 339.692 203.651 339.692 207.897C339.692 212.674 335.977 215.858 331.2 215.858Z" fill="white"/>
    <path d="M207.531 339.526C202.754 339.526 199.569 335.811 199.569 331.034C199.569 326.257 203.284 323.072 208.061 323.072C212.307 323.072 216.023 327.319 216.023 331.565C216.023 336.342 212.308 339.526 207.531 339.526Z" fill="white"/>
    <path d="M125.261 529.539C130.038 529.539 133.754 532.723 133.754 537.5C133.754 542.277 130.569 545.992 125.792 545.992C121.546 545.992 117.3 542.277 117.3 538.031C117.3 533.254 121.015 529.539 125.261 529.539Z" fill="white"/>
    <path d="M537.669 117.135C542.446 117.135 545.631 120.851 545.631 125.097C545.631 129.874 541.915 133.589 537.669 133.589C533.423 133.589 529.177 129.874 529.177 125.628C529.707 120.851 533.423 117.135 537.669 117.135Z" fill="white"/>
    <path d="M133.754 743.972C133.754 748.218 130.038 751.402 125.792 751.402C121.546 751.402 117.831 747.687 117.831 743.441C117.831 739.195 122.077 734.949 126.323 735.479C130.569 736.01 133.754 739.726 133.754 743.972Z" fill="white"/>
    <path d="M488.308 124.565C488.838 120.319 492.554 117.134 496.8 117.665C501.046 118.196 504.231 121.911 504.231 126.157C503.7 130.403 499.454 134.119 495.208 133.588C490.961 132.526 487.777 128.811 488.308 124.565Z" fill="white"/>
    <path d="M133.223 497.162C132.692 501.408 128.977 504.592 124.731 504.062C120.485 503.531 117.3 499.815 117.3 495.569C117.831 491.323 122.077 487.608 126.323 488.139C131.1 488.669 133.754 492.385 133.223 497.162Z" fill="white"/>
    <path d="M496.269 1106.49C501.046 1106.49 504.762 1110.2 504.231 1114.98C504.231 1119.22 499.984 1122.94 495.738 1122.94C491.492 1122.94 488.308 1119.22 488.308 1114.98C488.308 1109.67 491.492 1106.49 496.269 1106.49Z" fill="white"/>
    <path d="M381.092 1073.58C381.092 1077.82 377.376 1081.01 372.599 1081.01C368.353 1081.01 364.638 1076.76 365.169 1072.52C365.7 1068.27 369.415 1064.55 373.661 1065.09C377.907 1065.09 381.092 1068.8 381.092 1073.58Z" fill="white"/>
    <path d="M159.231 867.64C159.231 863.394 162.415 859.678 166.661 859.678C170.907 859.678 174.623 863.394 174.623 867.64C174.623 871.886 171.438 875.601 166.661 875.601C162.946 875.601 159.231 871.886 159.231 867.64Z" fill="white"/>
    <path d="M455.4 1122.41C451.154 1122.41 447.438 1118.7 447.969 1114.45C447.969 1110.2 451.684 1107.02 455.93 1107.02C460.177 1107.02 463.361 1110.74 463.361 1114.45C463.361 1118.7 459.646 1122.41 455.4 1122.41Z" fill="white"/>
    <path d="M166.661 380.927C162.415 380.927 159.231 377.212 159.231 372.435C159.761 368.189 163.477 365.004 167.723 365.535C171.969 366.066 175.154 369.25 174.623 373.496C174.623 377.212 170.907 380.927 166.661 380.927Z" fill="white"/>
    <path d="M381.092 167.557C381.092 171.803 376.846 174.988 372.6 174.988C368.354 174.457 365.169 171.273 365.7 167.027C365.7 162.78 369.415 159.065 373.661 159.596C377.907 159.065 381.092 162.78 381.092 167.557Z" fill="white"/>
    <path d="M249.462 982.818C253.708 982.818 256.892 986.533 256.892 990.779C256.361 995.025 253.177 997.679 248.931 997.679C244.684 997.679 241.5 994.494 241.5 990.248C242.031 986.533 245.215 982.818 249.462 982.818Z" fill="white"/>
    <path d="M462.831 125.093C462.831 129.339 459.646 132.524 455.4 132.524C451.154 132.524 447.438 129.339 447.438 125.093C447.438 120.847 451.154 117.132 455.4 117.663C459.646 117.663 462.831 121.378 462.831 125.093Z" fill="white"/>
    <path d="M133.223 784.312C133.223 788.558 130.038 792.273 125.792 792.273C121.546 792.273 118.361 789.088 118.361 784.842C118.361 780.596 121.015 777.411 125.261 776.881C129.507 776.35 133.223 779.535 133.223 784.312Z" fill="white"/>
    <path d="M125.792 462.662C121.546 462.662 117.831 459.477 117.831 454.7C117.831 450.454 121.015 447.27 125.261 447.27C129.508 447.27 132.692 450.454 133.223 454.169C133.754 458.946 130.038 462.662 125.792 462.662Z" fill="white"/>
    <path d="M290.862 1024.75C295.108 1024.75 298.292 1027.94 298.292 1032.18C298.292 1036.43 295.108 1039.61 291.392 1039.61C287.146 1039.61 283.431 1035.9 283.431 1031.65C283.431 1027.94 287.146 1024.75 290.862 1024.75Z" fill="white"/>
    <path d="M249.462 256.727C245.216 256.727 242.031 253.543 242.031 249.827C242.031 245.581 245.215 242.396 248.931 241.866C253.177 241.866 256.892 245.05 256.892 249.297C256.892 253.012 253.708 256.196 249.462 256.727Z" fill="white"/>
    <path d="M290.861 214.793C287.146 214.793 283.431 211.077 283.961 207.362C283.961 203.646 287.677 200.462 291.392 200.462C295.638 200.462 298.292 203.647 298.292 207.893C297.761 212.139 294.577 215.324 290.861 214.793Z" fill="white"/>
    <path d="M208.061 956.812C203.815 956.812 200.631 953.628 200.1 949.912C200.1 946.197 203.285 942.481 207 942.481C210.715 942.481 214.431 945.666 214.431 949.381C215.492 953.628 212.308 956.812 208.061 956.812Z" fill="white"/>
    <path d="M214.962 290.696C214.962 294.942 211.777 298.126 207.531 297.595C203.815 297.595 200.1 293.88 200.1 290.165C200.1 286.45 203.815 283.265 207.531 283.265C212.308 283.795 214.962 286.449 214.962 290.696Z" fill="white"/>
    <path d="M421.43 1114.45C421.43 1118.17 417.715 1121.35 413.469 1121.35C409.754 1120.82 407.1 1117.63 407.1 1113.92C407.1 1110.2 410.284 1107.02 414 1107.02C417.715 1107.02 421.43 1110.74 421.43 1114.45Z" fill="white"/>
    <path d="M627.369 1156.38C627.369 1160.09 624.185 1163.28 620.469 1163.28C616.754 1163.28 613.039 1159.56 613.039 1155.85C613.039 1152.13 616.754 1148.95 621 1148.95C624.715 1148.95 627.369 1152.13 627.369 1156.38Z" fill="white"/>
    <path d="M132.692 825.708C132.692 829.423 129.507 832.608 125.792 832.608C122.077 832.608 118.892 829.954 118.361 826.239C117.831 821.993 121.546 818.808 125.261 818.808C129.507 818.808 132.692 821.992 132.692 825.708Z" fill="white"/>
    <path d="M167.723 901.077C171.438 901.077 174.623 904.261 174.092 907.977C174.092 911.692 170.907 914.877 167.192 914.877C163.477 914.877 159.761 911.162 160.292 907.446C160.292 904.262 163.477 901.077 167.723 901.077Z" fill="white"/>
    <path d="M84.9231 612.87C88.6385 612.87 91.823 616.055 91.823 619.77C91.823 623.485 88.1075 627.201 84.3921 627.201C80.6767 627.201 77.4922 623.485 77.4922 619.77C78.023 616.055 80.6769 612.87 84.9231 612.87Z" fill="white"/>
    <path d="M626.838 84.224C626.838 87.9394 624.185 91.1243 620.469 91.1243C616.223 91.1243 613.039 87.9395 613.039 83.6934C613.039 79.978 616.223 76.7935 619.939 76.7935C623.654 77.3242 626.838 80.5086 626.838 84.224Z" fill="white"/>
    <path d="M338.631 1073.05C338.631 1076.76 335.446 1079.95 331.731 1079.95C328.015 1079.95 324.3 1076.23 324.3 1072.52C324.3 1068.8 328.015 1065.62 331.731 1065.62C335.446 1066.15 338.631 1068.8 338.631 1073.05Z" fill="white"/>
    <path d="M586.5 1155.32C586.5 1159.03 583.846 1162.22 580.131 1162.75C576.415 1163.28 572.7 1159.56 572.7 1155.85C572.7 1152.13 575.884 1148.95 579.6 1148.95C583.315 1148.95 585.969 1151.6 586.5 1155.32Z" fill="white"/>
    <path d="M91.8229 661.703C91.8229 665.419 88.6383 668.603 84.923 668.603C81.2076 668.603 78.0227 665.419 78.0227 661.703C78.0227 657.988 81.2076 654.803 84.923 654.803C88.6383 654.803 91.8229 657.457 91.8229 661.703Z" fill="white"/>
    <path d="M84.923 585.8C81.2076 585.8 78.0227 582.616 78.0227 578.9C78.0227 575.185 81.2076 572 84.923 572C88.6383 572 91.8229 575.185 91.8229 578.9C91.8229 582.616 88.6383 585.8 84.923 585.8Z" fill="white"/>
    <path d="M125.261 406.933C128.976 406.933 132.161 409.587 132.161 413.833C132.161 417.548 128.976 420.733 125.261 420.733C121.546 420.733 118.361 417.548 118.361 413.833C118.892 410.118 121.546 406.933 125.261 406.933Z" fill="white"/>
    <path d="M420.9 125.627C420.9 129.342 417.715 132.527 414 132.527C410.284 132.527 407.1 129.342 407.1 125.627C407.1 121.911 410.284 118.727 414 118.727C417.715 118.727 420.9 121.381 420.9 125.627Z" fill="white"/>
    <path d="M332.262 173.924C328.546 173.924 325.362 171.27 325.362 167.554C325.362 163.839 328.015 160.654 331.731 160.654C335.446 160.654 338.631 163.308 338.631 167.024C338.631 170.208 335.977 173.393 332.262 173.924Z" fill="white"/>
    <path d="M538.2 1162.75C534.484 1162.75 531.3 1160.1 531.3 1156.38C531.3 1152.67 533.954 1149.48 537.669 1149.48C541.384 1149.48 544.569 1152.13 544.569 1155.85C544.569 1159.57 541.915 1162.75 538.2 1162.75Z" fill="white"/>
    <path d="M167.192 338.462C163.477 338.462 160.292 335.808 160.292 332.092C160.292 328.377 162.946 325.192 166.661 325.192C170.377 325.192 173.561 327.846 173.561 331.562C174.092 334.746 170.908 337.931 167.192 338.462Z" fill="white"/>
    <path d="M579.069 91.6558C575.354 91.6558 572.169 88.4713 572.169 84.7559C572.169 81.0405 575.354 77.856 579.069 77.856C582.785 77.856 585.969 81.0405 585.969 84.7559C585.969 88.4713 582.785 91.6558 579.069 91.6558Z" fill="white"/>
    <path d="M84.923 531.135C88.6383 531.135 91.2919 533.789 91.2919 537.505C91.2919 541.22 88.6383 544.404 84.923 544.404C81.2076 544.404 78.0227 541.22 78.0227 537.505C78.5535 533.789 81.2076 531.135 84.923 531.135Z" fill="white"/>
    <path d="M84.392 695.673C88.1074 695.673 90.7612 697.797 91.2919 701.512C91.8227 705.227 88.6383 708.943 84.923 708.943C81.2076 708.943 78.0227 705.758 78.0227 702.043C78.0227 698.858 80.6766 695.673 84.392 695.673Z" fill="white"/>
    <path d="M544.569 84.2249C544.569 87.9403 541.915 91.1252 537.669 91.1252C534.485 91.1252 531.3 87.9405 530.769 84.7559C530.769 81.0405 533.423 77.856 537.669 77.856C541.385 77.856 544.038 80.5095 544.569 84.2249Z" fill="white"/>
    <path d="M379.5 1114.45C379.5 1118.16 376.846 1120.82 373.131 1120.82C369.946 1120.82 366.761 1117.63 366.761 1114.45C366.761 1111.26 369.415 1108.08 373.131 1108.08C376.846 1108.08 379.5 1110.73 379.5 1114.45Z" fill="white"/>
    <path d="M91.2917 743.439C91.2917 747.154 88.6381 749.808 84.9228 749.808C81.2074 749.808 78.5535 747.154 78.5535 743.439C78.5535 740.254 81.7381 737.069 84.9228 736.539C88.1074 737.069 91.2917 740.254 91.2917 743.439Z" fill="white"/>
    <path d="M496.269 91.1238C493.085 91.1238 489.9 88.4699 489.9 84.7545C489.9 81.0392 492.554 78.3853 496.269 78.3853C499.985 78.3853 502.638 81.0392 502.638 84.7545C502.638 87.4084 499.985 91.1238 496.269 91.1238Z" fill="white"/>
    <path d="M91.2919 496.102C91.2919 499.817 88.6383 502.471 84.923 502.471C81.2076 502.471 78.5535 499.817 78.0227 496.102C78.0227 492.917 81.2074 489.733 84.392 489.202C88.1074 489.202 91.2919 492.387 91.2919 496.102Z" fill="white"/>
    <path d="M496.269 1162.22C492.554 1162.22 489.9 1159.56 489.9 1155.85C489.9 1152.13 492.554 1149.48 496.269 1148.95C499.985 1148.95 503.169 1152.13 503.169 1155.85C502.638 1159.56 499.985 1162.22 496.269 1162.22Z" fill="white"/>
    <path d="M131.631 372.964C131.631 376.679 128.977 379.333 125.261 379.333C122.077 379.333 119.423 376.679 119.423 373.495C119.423 370.31 122.077 367.657 125.261 367.126C128.446 366.595 131.631 369.249 131.631 372.964Z" fill="white"/>
    <path d="M255.831 1032.18C255.831 1035.89 252.646 1038.55 248.931 1038.02C245.746 1037.48 243.092 1034.83 243.092 1031.65C243.092 1028.46 245.746 1025.81 248.931 1025.81C252.646 1025.81 255.831 1028.46 255.831 1032.18Z" fill="white"/>
    <path d="M213.9 990.247C213.9 993.432 211.246 996.086 208.062 996.616C204.346 997.147 201.692 993.963 201.162 990.778C201.162 987.063 203.816 984.409 207.531 984.409C211.246 984.409 213.9 987.062 213.9 990.247Z" fill="white"/>
    <path d="M131.631 867.107C131.631 870.823 128.977 873.477 125.261 873.477C122.077 873.477 119.423 870.823 119.423 867.638C119.423 863.923 122.077 861.269 125.792 861.269C128.977 861.269 131.631 863.923 131.631 867.107Z" fill="white"/>
    <path d="M379.5 125.093C379.5 128.809 376.846 131.463 373.131 131.463C369.946 131.463 367.292 128.278 367.292 125.624C367.292 122.44 369.946 119.786 373.131 119.255C376.315 118.724 379.5 121.378 379.5 125.093Z" fill="white"/>
    <path d="M213.9 249.293C213.9 252.477 211.246 255.131 208.061 255.131C204.877 255.131 201.692 252.477 201.692 249.293C201.692 246.108 204.346 243.454 207.531 242.923C211.246 242.923 213.9 245.577 213.9 249.293Z" fill="white"/>
    <path d="M255.3 207.892C255.3 211.077 252.646 213.73 249.461 213.73C246.277 213.73 243.623 211.077 243.623 207.892C243.623 204.708 246.277 202.053 249.461 202.053C252.646 201.523 255.3 204.177 255.3 207.892Z" fill="white"/>
    <path d="M461.238 1156.38C461.238 1159.56 458.054 1162.22 454.869 1162.22C451.684 1162.22 449.031 1159.03 449.031 1155.85C449.031 1152.66 452.215 1150.01 455.4 1150.01C459.115 1150.01 461.769 1152.66 461.238 1156.38Z" fill="white"/>
    <path d="M90.7617 455.762C90.7617 458.946 87.577 461.6 84.3924 461.069C81.7386 460.539 79.0849 457.885 79.6157 455.231C79.6157 452.047 82.2693 449.393 85.9847 449.923C88.6385 449.923 90.7617 452.577 90.7617 455.762Z" fill="white"/>
    <path d="M290.861 161.188C294.046 161.188 296.169 163.311 296.7 166.495C296.7 169.68 294.046 172.864 290.861 172.864C287.677 172.864 285.023 169.68 285.023 167.026C285.553 163.842 287.677 161.188 290.861 161.188Z" fill="white"/>
    <path d="M167.193 944.072C170.377 944.072 173.031 946.726 173.031 950.442C173.031 953.626 170.908 955.749 167.723 955.749C164.539 955.749 161.354 953.096 161.354 949.911C161.354 946.726 164.008 944.072 167.193 944.072Z" fill="white"/>
    <path d="M296.7 1073.05C296.7 1076.24 293.515 1078.89 290.33 1078.89C287.146 1078.89 284.492 1075.7 285.023 1072.52C285.554 1069.87 287.677 1067.21 290.861 1067.21C294.577 1067.21 296.7 1069.87 296.7 1073.05Z" fill="white"/>
    <path d="M455.4 78.9185C458.054 78.9185 460.707 81.5723 461.238 84.2261C461.238 87.4108 459.115 90.0648 455.93 90.0648C452.746 90.0648 450.092 87.9417 450.092 84.7571C449.561 82.1033 452.215 78.9185 455.4 78.9185Z" fill="white"/>
    <path d="M84.9234 790.148C81.7388 790.148 79.0847 786.964 79.0847 783.779C79.0847 780.595 81.7386 778.472 84.3924 778.472C87.577 778.472 90.7617 781.125 90.7617 784.31C90.7617 787.495 87.5772 790.679 84.9234 790.148Z" fill="white"/>
    <path d="M167.193 296.531C164.008 296.531 161.354 293.346 161.354 290.692C161.354 288.039 164.008 285.385 167.193 285.385C170.377 285.385 173.031 288.038 173.031 291.223C172.5 293.877 169.847 296.531 167.193 296.531Z" fill="white"/>
    <path d="M419.308 1155.85C419.308 1158.5 417.185 1160.63 414 1160.63C410.815 1160.63 408.692 1157.97 408.692 1155.32C408.692 1152.66 411.346 1150.54 414 1150.01C416.654 1150.54 419.308 1153.19 419.308 1155.85Z" fill="white"/>
    <path d="M332.262 1119.76C329.608 1119.76 326.954 1117.63 326.954 1114.98C326.423 1111.79 328.546 1109.14 331.731 1109.14C334.385 1109.14 337.039 1111.26 337.039 1113.92C337.569 1116.57 334.915 1119.76 332.262 1119.76Z" fill="white"/>
    <path d="M89.6999 826.241C89.6999 828.894 87.0461 831.548 84.3922 831.017C81.7384 831.017 79.6155 828.363 79.6155 825.71C79.6155 823.056 82.2693 820.933 84.9232 820.933C88.1078 820.933 89.6999 823.056 89.6999 826.241Z" fill="white"/>
    <path d="M125.792 326.255C128.446 326.255 130.569 328.909 130.569 331.563C130.569 334.747 128.446 336.339 125.262 336.339C122.608 336.339 119.954 333.685 120.485 331.032C120.485 328.378 123.138 326.255 125.792 326.255Z" fill="white"/>
    <path d="M418.777 84.7554C418.777 87.4093 416.123 90.0629 413.469 89.5322C410.815 89.5322 408.692 86.8783 408.692 84.2245C408.692 81.5706 411.346 79.4478 414 79.4478C417.185 79.4478 419.308 82.1016 418.777 84.7554Z" fill="white"/>
    <path d="M584.377 1196.72C584.377 1199.37 581.723 1201.5 579.069 1201.5C575.884 1201.5 574.292 1199.37 574.292 1196.19C574.292 1193.53 576.946 1190.88 579.6 1190.88C582.254 1191.41 584.377 1194.07 584.377 1196.72Z" fill="white"/>
    <path d="M625.246 1196.72C625.246 1199.37 622.592 1201.49 619.938 1201.49C616.754 1201.49 615.161 1199.37 615.161 1196.19C615.161 1193.53 617.815 1190.88 620.469 1191.41C623.123 1191.41 625.246 1194.06 625.246 1196.72Z" fill="white"/>
    <path d="M84.3922 419.143C81.7384 419.143 79.6155 416.489 79.6155 413.835C79.6155 411.181 82.2693 409.058 84.9232 409.058C88.1078 409.058 89.6999 411.181 89.6999 414.366C89.6999 417.02 87.0461 419.143 84.3922 419.143Z" fill="white"/>
    <path d="M337.038 125.094C337.038 127.748 334.915 130.402 332.261 130.402C329.607 130.402 326.954 128.279 326.954 125.625C326.954 122.44 328.546 120.317 331.731 120.317C334.385 120.317 337.038 122.44 337.038 125.094Z" fill="white"/>
    <path d="M125.792 903.202C128.446 903.202 130.569 905.856 130.569 908.51C130.569 911.694 128.446 913.287 125.262 913.287C122.608 913.287 119.954 910.633 120.485 907.979C120.485 905.325 123.138 903.202 125.792 903.202Z" fill="white"/>
    <path d="M42.9921 614.995C45.646 614.995 48.2998 617.118 48.2998 619.772C48.2998 622.426 45.646 624.549 42.9921 624.549C40.3383 624.549 38.7459 622.957 38.2151 620.303C38.2151 617.649 40.3383 614.995 42.9921 614.995Z" fill="white"/>
    <path d="M619.938 38.0483C622.592 38.0483 625.246 40.1712 625.246 42.8251C625.246 45.4789 622.592 47.6021 619.938 47.6021C617.285 47.6021 615.692 46.0099 615.161 43.356C615.161 40.7022 617.285 38.0483 619.938 38.0483Z" fill="white"/>
    <path d="M544.038 1196.72C541.384 1198.84 539.261 1200.43 537.669 1200.96C535.015 1201.5 532.892 1198.84 533.423 1195.66C533.954 1193 535.546 1190.88 538.2 1191.94C540.323 1192.47 541.384 1194.6 544.038 1196.72Z" fill="white"/>
    <path d="M579.069 36.457C581.192 39.1109 583.315 40.7034 583.846 42.2957C584.377 44.9495 582.784 46.5416 580.131 47.0724C577.477 47.6032 574.292 44.9495 575.354 42.2957C575.354 41.2341 576.946 39.6416 579.069 36.457Z" fill="white"/>
    <path d="M42.9921 667.543C40.869 664.358 39.2768 662.766 38.746 661.174C38.2152 658.52 41.3999 656.397 44.0537 656.928C46.7076 657.458 48.2999 659.582 47.7692 661.705C47.2384 663.828 45.1152 664.889 42.9921 667.543Z" fill="white"/>
    <path d="M208.061 1038.55C205.938 1035.89 203.815 1034.3 203.285 1032.18C202.754 1029.52 205.408 1026.87 208.061 1027.4C210.715 1027.4 212.839 1029.52 212.308 1032.18C211.777 1033.77 210.184 1035.36 208.061 1038.55Z" fill="white"/>
    <path d="M42.992 572.534C45.1151 575.188 47.2383 576.78 47.769 578.903C48.2998 581.557 46.7072 583.15 43.5226 583.681C40.8688 584.211 37.6844 581.557 38.7459 578.903C39.2767 577.311 40.8689 575.719 42.992 572.534Z" fill="white"/>
    <path d="M42.992 695.673C45.1151 698.327 46.7073 699.92 47.2381 701.512C47.7689 704.166 45.6459 706.289 42.992 706.289C40.3382 706.289 38.2152 704.696 38.7459 702.573C39.2767 700.45 41.3997 698.858 42.992 695.673Z" fill="white"/>
    <path d="M166.662 996.62C165.069 993.966 163.477 992.374 162.946 990.782C162.415 988.659 165.069 986.004 167.723 986.535C170.377 986.535 172.5 989.189 171.439 991.843C170.908 992.904 168.785 993.966 166.662 996.62Z" fill="white"/>
    <path d="M537.669 49.1925C535.546 46.5387 533.954 44.9465 533.423 43.3542C532.892 40.7004 535.015 38.5771 537.669 38.5771C540.323 38.5771 542.446 40.1694 541.915 42.8232C541.915 44.9463 539.792 46.5387 537.669 49.1925Z" fill="white"/>
    <path d="M213.9 207.895C211.246 210.018 209.654 211.61 208.061 212.141C205.938 212.672 203.285 210.018 203.285 207.895C203.285 205.241 205.938 203.118 208.061 203.648C210.184 204.179 211.246 205.772 213.9 207.895Z" fill="white"/>
    <path d="M250.523 1077.29C246.807 1076.76 245.215 1074.64 245.215 1071.98C245.746 1069.33 247.338 1068.27 249.992 1068.27C252.646 1068.27 254.238 1070.39 253.708 1072.52C253.177 1074.64 251.054 1076.23 250.523 1077.29Z" fill="white"/>
    <path d="M49.3618 536.972C46.708 539.095 45.6465 540.687 44.0542 541.748C41.9311 542.81 39.2771 540.156 39.2771 538.033C39.2771 535.379 41.4003 532.726 44.0542 533.256C45.1157 533.787 46.708 535.379 49.3618 536.972Z" fill="white"/>
    <path d="M167.192 243.457C168.784 246.111 170.907 247.173 170.907 249.296C171.438 251.95 169.846 253.542 167.192 253.542C164.538 254.073 161.884 251.419 162.946 249.296C163.476 247.173 165.069 246.111 167.192 243.457Z" fill="white"/>
    <path d="M378.969 1155.85C376.315 1157.97 375.254 1159.56 373.131 1160.09C371.008 1160.63 368.885 1157.97 368.885 1155.85C369.416 1153.19 371.008 1151.6 373.131 1152.13C375.254 1152.13 376.315 1154.26 378.969 1155.85Z" fill="white"/>
    <path d="M255.3 166.492C252.646 168.615 251.585 170.208 249.992 170.739C247.869 171.8 245.215 169.146 245.746 166.492C245.746 163.838 247.338 162.246 249.992 162.777C251.054 163.308 252.646 164.9 255.3 166.492Z" fill="white"/>
    <path d="M502.108 1196.19C499.454 1198.31 498.392 1199.9 496.8 1200.96C494.677 1202.03 492.023 1198.84 492.023 1196.72C492.023 1194.06 493.615 1192.47 496.269 1193C497.862 1193 499.454 1194.6 502.108 1196.19Z" fill="white"/>
    <path d="M378.969 84.7576C376.315 86.3499 374.723 88.473 373.13 88.473C372.069 88.473 369.946 86.3499 369.415 84.7576C368.884 82.1037 371.007 80.5114 373.13 81.0421C374.723 81.0421 376.315 82.6345 378.969 84.7576Z" fill="white"/>
    <path d="M43.5229 501.41C41.3998 498.756 39.8078 497.695 39.8078 496.103C39.277 493.449 40.869 491.856 43.5229 491.856C45.1152 491.856 47.2383 493.979 47.2383 495.041C47.2383 497.164 45.1152 498.756 43.5229 501.41Z" fill="white"/>
    <path d="M47.7692 744.502C46.1768 745.563 44.5844 747.155 42.9921 747.155C41.9306 747.155 39.8076 745.032 39.8076 743.44C39.8076 742.379 41.9306 740.255 42.9921 739.725C45.6459 739.194 46.7076 741.317 47.7692 744.502Z" fill="white"/>
    <path d="M84.3919 378.804C82.7996 375.62 80.6766 374.028 81.2074 372.435C81.2074 371.374 83.8613 369.25 84.9228 369.25C85.9844 369.25 88.638 371.374 88.638 372.435C88.638 374.558 86.515 376.15 84.3919 378.804Z" fill="white"/>
    <path d="M90.231 867.639C87.5772 869.231 85.9849 870.823 84.9233 871.354C82.2695 871.885 80.6771 869.762 81.2079 867.639C81.7387 866.046 83.331 863.923 84.9233 863.923C86.5157 863.923 87.5772 865.516 90.231 867.639Z" fill="white"/>
    <path d="M502.108 42.8233C499.454 44.9464 497.862 46.5386 496.269 47.0694C495.208 47.0694 493.085 44.9464 492.554 43.8849C492.554 42.8233 494.146 40.1694 495.738 40.1694C497.331 39.1079 498.923 40.7002 502.108 42.8233Z" fill="white"/>
    <path d="M291.392 1108.61C292.985 1111.26 295.108 1112.86 294.577 1114.45C294.577 1115.51 292.454 1117.63 290.862 1117.63C288.208 1118.16 286.615 1116.04 287.146 1113.39C287.677 1112.33 289.269 1111.26 291.392 1108.61Z" fill="white"/>
    <path d="M460.707 1196.72C458.054 1198.31 456.992 1199.9 455.4 1199.9C453.277 1200.43 451.684 1198.31 452.215 1196.72C452.746 1195.13 454.338 1193.53 455.93 1193.53C456.992 1193 458.584 1195.13 460.707 1196.72Z" fill="white"/>
    <path d="M131.1 290.694C128.446 292.286 127.384 294.409 125.792 294.409C124.2 294.409 123.138 292.286 122.077 291.224C123.138 290.163 124.2 288.04 125.792 287.509C126.854 286.978 128.446 288.571 131.1 290.694Z" fill="white"/>
    <path d="M126.323 955.216C124.2 953.093 122.608 951.501 122.608 950.439C122.608 949.378 124.2 947.255 125.792 946.724C127.915 946.193 129.508 947.255 129.508 949.909C128.977 950.97 127.385 952.563 126.323 955.216Z" fill="white"/>
    <path d="M296.169 125.093C294.046 127.216 292.454 128.809 291.392 128.809C290.331 128.809 288.207 127.216 287.677 125.624C287.146 123.501 288.208 121.909 290.861 121.909C291.923 121.909 293.515 123.501 296.169 125.093Z" fill="white"/>
    <path d="M43.5229 789.084C41.9306 786.961 40.3384 785.899 40.3384 784.838C40.3384 783.776 41.9307 781.653 42.9922 781.653C45.1153 781.122 46.7077 782.715 46.7077 784.838C46.1769 785.899 44.5844 786.961 43.5229 789.084Z" fill="white"/>
    <path d="M455.931 48.6652C454.338 45.4805 452.746 43.888 452.746 42.8265C452.746 42.2957 454.869 40.1728 455.4 40.7036C456.461 41.2344 457.523 42.8266 458.054 43.8881C458.585 44.9496 456.992 46.0113 455.931 48.6652Z" fill="white"/>
    <path d="M39.2771 454.169C40.3386 453.639 41.931 452.577 42.9925 452.577C44.0541 452.577 45.6463 454.169 46.177 455.231C46.7078 455.762 44.5849 457.885 44.0542 457.885C42.9926 457.885 41.4002 456.823 40.3387 455.762C39.8079 455.762 39.2771 454.7 39.2771 454.169Z" fill="white"/>
    <path d="M84.923 904.794C85.9846 906.386 87.5767 907.978 87.0459 908.509C86.5151 909.571 85.4537 910.632 83.8614 910.632C83.3307 910.632 81.7384 909.04 82.2692 907.978C82.8 907.447 83.8615 906.386 84.923 904.794Z" fill="white"/>
    <path d="M335.446 1156.38C333.853 1157.44 332.261 1158.5 331.731 1158.5C330.669 1157.97 330.138 1156.38 329.607 1155.32C329.607 1154.79 331.2 1153.19 332.261 1153.72C332.792 1153.72 333.853 1154.79 335.446 1156.38Z" fill="white"/>
    <path d="M88.6381 331.566C87.0458 332.627 85.4538 334.22 84.923 333.689C83.8615 333.689 83.3306 331.566 82.7998 330.504C82.7998 329.973 84.3921 328.381 85.4537 328.912C85.9844 329.443 87.0458 330.504 88.6381 331.566Z" fill="white"/>
    <path d="M331.731 81.0386C332.792 82.6309 333.854 83.6925 333.854 84.754C333.854 85.2848 332.262 86.8769 331.731 86.8769C330.669 86.3461 329.077 85.2846 329.077 84.2231C329.077 83.6923 330.669 82.6309 331.731 81.0386Z" fill="white"/>
    <path d="M414 1193C415.062 1194.59 416.654 1196.18 416.654 1196.72C416.654 1197.78 415.061 1198.84 413.469 1198.84C412.938 1198.84 411.346 1197.25 411.346 1196.72C411.877 1195.65 412.938 1194.59 414 1193Z" fill="white"/>
    <path d="M46.1764 413.835C44.5841 414.897 43.5227 415.958 42.9919 415.958C42.4611 415.958 41.3997 414.366 41.3997 413.304C41.3997 412.773 42.4611 411.712 42.9919 411.712C44.0534 411.712 45.1148 412.774 46.1764 413.835Z" fill="white"/>
    <path d="M167.192 1034.83C166.131 1033.24 165.069 1032.71 165.069 1031.65C165.069 1031.12 166.131 1029.52 166.661 1029.52C167.723 1029.52 168.784 1030.59 169.315 1031.12C169.315 1032.71 168.254 1033.24 167.192 1034.83Z" fill="white"/>
    <path d="M211.246 1073.05C209.654 1073.58 208.592 1074.64 208.061 1074.64C207.53 1074.64 206.469 1073.05 206.469 1073.05C207 1071.98 207.531 1070.92 208.592 1070.92C208.592 1070.92 209.654 1071.98 211.246 1073.05Z" fill="white"/>
    <path d="M413.469 46.008C412.407 44.4157 411.346 43.354 411.877 42.8232C412.408 42.2924 413.469 41.231 414.531 41.231C415.061 41.231 416.123 42.8234 416.123 43.3542C415.592 43.8849 415.061 44.4157 413.469 46.008Z" fill="white"/>
    <path d="M207 169.15C206.469 168.089 205.938 167.027 205.938 166.497C205.938 165.966 207.531 164.904 207.531 164.904C208.592 165.435 209.654 166.497 209.654 167.028C209.654 168.089 209.123 169.15 208.592 170.212C208.062 169.681 207.531 169.15 207 169.15Z" fill="white"/>
    <path d="M40.3384 825.708C41.9307 825.177 42.9921 824.115 43.5229 824.115C44.0536 824.115 45.1154 825.708 45.1154 825.708C44.5847 826.769 44.0538 827.831 42.9922 827.831C42.4615 828.362 41.9307 826.769 40.3384 825.708Z" fill="white"/>
    <path d="M249.462 1111.26C250.523 1112.86 251.054 1113.39 251.054 1114.45C251.054 1114.98 249.992 1116.57 249.462 1116.04C248.4 1115.51 247.338 1114.98 247.338 1113.92C247.338 1113.92 248.4 1112.86 249.462 1111.26Z" fill="white"/>
    <path d="M166.131 210.016C165.6 208.954 165.069 207.893 165.069 207.362C165.069 206.831 166.661 205.77 166.661 205.77C167.723 206.3 168.785 207.362 168.785 207.893C168.785 208.954 168.254 210.016 167.723 211.077C167.192 210.546 166.661 210.016 166.131 210.016Z" fill="white"/>
    <path d="M582.253 1237.59C580.661 1238.65 580.131 1240.24 579.069 1240.24C578.538 1240.24 577.477 1239.18 576.946 1238.12C576.946 1237.59 578.008 1236.52 578.538 1236.52C580.131 1236.52 580.661 1237.06 582.253 1237.59Z" fill="white"/>
    <path d="M620.469 1235.46C621.531 1237.05 622.592 1238.12 622.592 1238.65C622.592 1239.18 621 1240.24 619.938 1240.24C619.408 1240.24 618.346 1239.18 618.346 1238.12C618.346 1237.58 619.408 1236.52 620.469 1235.46Z" fill="white"/>
    <path d="M252.115 124.562C251.054 125.623 250.523 126.684 249.992 126.684C249.461 126.684 248.4 125.623 248.4 125.092C248.4 125.092 248.931 123.5 249.462 123.5C249.462 124.031 250.523 124.031 252.115 124.562Z" fill="white"/>
    <path d="M0 619.774C1.59231 619.243 2.12308 618.712 2.65385 618.712C3.18462 618.712 3.71513 619.774 3.71513 619.774C3.18436 620.304 2.65365 621.366 2.12288 621.366C2.12288 621.366 1.06154 620.835 0 619.774Z" fill="white"/>
    <path d="M4.77673 578.37C3.71519 579.431 3.18462 580.493 2.65385 580.493C2.12308 580.493 1.06128 579.431 1.06128 578.9C1.06128 578.9 1.59211 577.308 2.12288 577.308C2.65365 577.839 3.71519 577.839 4.77673 578.37Z" fill="white"/>
    <path d="M581.723 1.95581C580.661 3.01735 580.131 4.07902 579.6 4.07902C579.069 4.07902 578.008 3.01754 578.008 2.48677C578.008 2.48677 578.538 0.894531 579.069 0.894531C579.6 0.894531 580.131 1.42504 581.723 1.95581Z" fill="white"/>
    <path d="M4.77685 661.173C3.71531 662.234 2.65377 663.296 2.123 663.296C1.59224 663.296 1.06153 662.235 0.530762 661.704C0.530762 661.704 1.0616 660.642 1.59236 660.642C2.6539 660.111 3.71531 660.642 4.77685 661.173Z" fill="white"/>
    <path d="M125.792 988.125C126.854 989.718 127.385 990.248 127.385 990.779C127.385 991.31 126.323 992.371 126.323 992.371C125.793 992.371 124.731 991.841 124.2 990.779C124.2 990.248 124.731 989.187 125.792 988.125Z" fill="white"/>
    <path d="M2.65385 699.385C3.18462 700.978 3.71513 701.508 3.71513 702.039C3.71513 702.57 2.65385 703.101 2.65385 703.101C2.12308 702.57 1.06128 702.039 1.06128 701.508C1.06128 701.508 1.59231 700.978 2.65385 699.385Z" fill="white"/>
    <path d="M2.65385 534.846C3.71538 536.438 4.24609 536.969 4.24609 537.5C4.24609 538.031 3.18442 538.562 2.12288 539.092C2.12288 539.092 1.06128 538.031 1.06128 537.5C1.06128 536.969 1.59231 536.438 2.65385 534.846Z" fill="white"/>
    <path d="M125.792 251.419C124.73 250.358 123.669 249.296 123.669 248.766C123.669 248.235 124.73 247.704 125.261 247.173C125.261 247.173 126.323 247.704 126.323 248.235C127.384 249.296 126.853 250.358 125.792 251.419Z" fill="white"/>
    <path d="M375.785 1196.19C374.723 1197.25 373.662 1198.31 373.131 1197.78C372.6 1197.78 372.069 1196.72 371.539 1196.19L372.6 1195.13C373.661 1195.13 374.192 1195.66 375.785 1196.19Z" fill="white"/>
    <path d="M619.407 4.07902C619.407 3.54825 618.877 2.48658 618.877 1.95581C618.877 1.42504 619.938 0.894531 620.469 0.894531C621 1.4253 622.061 1.956 622.061 2.48677C622.061 3.54831 621.531 4.07908 621.531 5.14062C620.469 4.60985 619.938 4.60979 619.407 4.07902Z" fill="white"/>
    <path d="M537.138 1240.77C536.607 1239.18 536.077 1238.65 536.077 1237.59C536.077 1237.06 537.138 1236.52 537.669 1236.52C538.2 1237.06 539.261 1237.59 539.261 1238.12C539.261 1238.65 538.2 1239.71 537.138 1240.77Z" fill="white"/>
    <path d="M540.323 1.95581C539.261 3.01735 538.2 4.07915 537.669 3.54838C537.138 3.54838 536.608 2.48658 536.077 1.95581C536.077 1.95581 536.607 0.894531 537.138 0.894531C538.2 0.894531 538.731 1.42504 540.323 1.95581Z" fill="white"/>
</svg>
